<?xml version="1.0" encoding="UTF-8" standalone="no"?>
<!DOCTYPE svg PUBLIC "-//W3C//DTD SVG 1.1//EN"
 "http://www.w3.org/Graphics/SVG/1.1/DTD/svg11.dtd">
<!-- Generated by graphviz version 2.38.0 (20140413.2041)
 -->
<!-- Title: g Pages: 1 -->
<svg width="413pt" height="368pt"
 viewBox="0.00 0.00 413.00 368.00" xmlns="http://www.w3.org/2000/svg" xmlns:xlink="http://www.w3.org/1999/xlink">
<g id="graph0" class="graph" transform="scale(1 1) rotate(0) translate(0 368)">
<title>g</title>
<polygon fill="white" stroke="none" points="0,-0 0,-368 413,-368 413,-0 0,-0"/>
<!-- HX1 -->
<g id="node1" class="node"><title>HX1</title>
<polygon fill="#f5f5f5" stroke="black" points="175.5,-345.5 175.5,-367.5 235.5,-367.5 235.5,-345.5 175.5,-345.5"/>
<text text-anchor="start" x="189.5" y="-360.5" font-family="Times New Roman,serif" font-weight="bold" font-size="10.00">Hazard </text>
<polyline fill="none" stroke="black" points="175.5,-356.5 235.5,-356.5 "/>
<text text-anchor="start" x="176.5" y="-348.5" font-family="Times New Roman,serif" font-size="10.00">System hazard</text>
</g>
<!-- HX2 -->
<g id="node3" class="node"><title>HX2</title>
<polygon fill="#f5f5f5" stroke="black" points="157,-245.5 157,-322.5 254,-322.5 254,-245.5 157,-245.5"/>
<text text-anchor="start" x="189.5" y="-315.5" font-family="Times New Roman,serif" font-weight="bold" font-size="10.00">Hazard </text>
<polyline fill="none" stroke="black" points="157,-311.5 254,-311.5 "/>
<text text-anchor="start" x="166.5" y="-303.5" font-family="Times New Roman,serif" font-size="10.00">C1: Communication</text>
<text text-anchor="start" x="172.5" y="-292.5" font-family="Times New Roman,serif" font-size="10.00">failure &#160;e.g., GCS</text>
<text text-anchor="start" x="175.5" y="-281.5" font-family="Times New Roman,serif" font-size="10.00">failure &#160;Loss of</text>
<text text-anchor="start" x="176" y="-270.5" font-family="Times New Roman,serif" font-size="10.00">wireless signal</text>
<text text-anchor="start" x="158" y="-259.5" font-family="Times New Roman,serif" font-size="10.00">Jammed communication</text>
<polyline fill="none" stroke="black" points="157,-256.5 254,-256.5 "/>
<text text-anchor="start" x="188.5" y="-248.5" font-family="Times New Roman,serif" font-size="10.00">xref: W1</text>
</g>
<!-- HX1&#45;&gt;HX2 -->
<g id="edge1" class="edge"><title>HX1&#45;&gt;HX2</title>
<path fill="none" stroke="black" d="M205.5,-340.138C205.5,-334.947 205.5,-328.901 205.5,-322.752"/>
<polygon fill="black" stroke="black" points="203.75,-340.399 205.5,-345.399 207.25,-340.399 203.75,-340.399"/>
</g>
<!-- HX3 -->
<g id="node2" class="node"><title>HX3</title>
<polygon fill="#f5f5f5" stroke="black" points="148.5,-89.5 148.5,-144.5 228.5,-144.5 228.5,-89.5 148.5,-89.5"/>
<text text-anchor="start" x="172.5" y="-137.5" font-family="Times New Roman,serif" font-weight="bold" font-size="10.00">Hazard </text>
<polyline fill="none" stroke="black" points="148.5,-133.5 228.5,-133.5 "/>
<text text-anchor="start" x="149.5" y="-125.5" font-family="Times New Roman,serif" font-size="10.00">C2: Communication</text>
<text text-anchor="start" x="158" y="-114.5" font-family="Times New Roman,serif" font-size="10.00">failure between</text>
<text text-anchor="start" x="150.5" y="-103.5" font-family="Times New Roman,serif" font-size="10.00">ground &#160;and UAVs</text>
<polyline fill="none" stroke="black" points="148.5,-100.5 228.5,-100.5 "/>
<text text-anchor="start" x="173" y="-92.5" font-family="Times New Roman,serif" font-size="10.00">xref:S11</text>
</g>
<!-- UX4 -->
<g id="node7" class="node"><title>UX4</title>
<polygon fill="#ccebc5" stroke="black" points="29,-0.5 29,-66.5 120,-66.5 120,-0.5 29,-0.5"/>
<text text-anchor="start" x="58.5" y="-59.5" font-family="Times New Roman,serif" font-weight="bold" font-size="10.00">Hazard </text>
<polyline fill="none" stroke="black" points="29,-55.5 120,-55.5 "/>
<text text-anchor="start" x="38.5" y="-47.5" font-family="Times New Roman,serif" font-size="10.00">CX2 The operator</text>
<text text-anchor="start" x="35.5" y="-36.5" font-family="Times New Roman,serif" font-size="10.00">is unable to receive</text>
<text text-anchor="start" x="42" y="-25.5" font-family="Times New Roman,serif" font-size="10.00">status data from</text>
<text text-anchor="start" x="34" y="-14.5" font-family="Times New Roman,serif" font-size="10.00">the UAVs and loses</text>
<text text-anchor="start" x="30" y="-3.5" font-family="Times New Roman,serif" font-size="10.00">situational awareness.</text>
</g>
<!-- HX3&#45;&gt;UX4 -->
<g id="edge7" class="edge"><title>HX3&#45;&gt;UX4</title>
<path fill="none" stroke="black" d="M146.847,-86.2215C137.939,-79.8531 128.49,-73.0983 119.464,-66.6451"/>
<polygon fill="black" stroke="black" points="146.087,-87.8296 151.172,-89.3139 148.122,-84.9823 146.087,-87.8296"/>
</g>
<!-- UX5 -->
<g id="node9" class="node"><title>UX5</title>
<polygon fill="#ffffcc" stroke="black" points="149,-0.5 149,-66.5 228,-66.5 228,-0.5 149,-0.5"/>
<text text-anchor="start" x="172.5" y="-59.5" font-family="Times New Roman,serif" font-weight="bold" font-size="10.00">Hazard </text>
<polyline fill="none" stroke="black" points="149,-55.5 228,-55.5 "/>
<text text-anchor="start" x="152.5" y="-47.5" font-family="Times New Roman,serif" font-size="10.00">CX3 The operator</text>
<text text-anchor="start" x="154" y="-36.5" font-family="Times New Roman,serif" font-size="10.00">is unable to send</text>
<text text-anchor="start" x="150" y="-25.5" font-family="Times New Roman,serif" font-size="10.00">directives to UAVs</text>
<text text-anchor="start" x="156.5" y="-14.5" font-family="Times New Roman,serif" font-size="10.00">and loses direct</text>
<text text-anchor="start" x="173" y="-3.5" font-family="Times New Roman,serif" font-size="10.00">control.</text>
</g>
<!-- HX3&#45;&gt;UX5 -->
<g id="edge8" class="edge"><title>HX3&#45;&gt;UX5</title>
<path fill="none" stroke="black" d="M188.5,-84.1244C188.5,-78.3829 188.5,-72.3943 188.5,-66.6451"/>
<polygon fill="black" stroke="black" points="186.75,-84.3138 188.5,-89.3139 190.25,-84.3139 186.75,-84.3138"/>
</g>
<!-- HX5 -->
<g id="node4" class="node"><title>HX5</title>
<polygon fill="#f5f5f5" stroke="black" points="2,-167.5 2,-222.5 101,-222.5 101,-167.5 2,-167.5"/>
<text text-anchor="start" x="35.5" y="-215.5" font-family="Times New Roman,serif" font-weight="bold" font-size="10.00">Hazard </text>
<polyline fill="none" stroke="black" points="2,-211.5 101,-211.5 "/>
<text text-anchor="start" x="3" y="-203.5" font-family="Times New Roman,serif" font-size="10.00">C4: Hand held controller</text>
<text text-anchor="start" x="18.5" y="-192.5" font-family="Times New Roman,serif" font-size="10.00">for manual flight</text>
<text text-anchor="start" x="14.5" y="-181.5" font-family="Times New Roman,serif" font-size="10.00">loses connectivity</text>
<text text-anchor="start" x="36" y="-170.5" font-family="Times New Roman,serif" font-size="10.00">to UAV</text>
</g>
<!-- HX2&#45;&gt;HX5 -->
<g id="edge2" class="edge"><title>HX2&#45;&gt;HX5</title>
<path fill="none" stroke="black" d="M152.371,-252.986C134.892,-243.111 115.592,-232.208 98.5943,-222.605"/>
<polygon fill="black" stroke="black" points="151.559,-254.537 156.773,-255.473 153.281,-251.49 151.559,-254.537"/>
</g>
<!-- HX6 -->
<g id="node6" class="node"><title>HX6</title>
<polygon fill="#f5f5f5" stroke="black" points="130.5,-173 130.5,-217 280.5,-217 280.5,-173 130.5,-173"/>
<text text-anchor="start" x="189.5" y="-210" font-family="Times New Roman,serif" font-weight="bold" font-size="10.00">Hazard </text>
<polyline fill="none" stroke="black" points="130.5,-206 280.5,-206 "/>
<text text-anchor="start" x="167.5" y="-198" font-family="Times New Roman,serif" font-size="10.00">C5: Ground control</text>
<text text-anchor="start" x="131.5" y="-187" font-family="Times New Roman,serif" font-size="10.00">system for multi&#45;UAVcommunication</text>
<text text-anchor="start" x="197" y="-176" font-family="Times New Roman,serif" font-size="10.00">fails</text>
</g>
<!-- HX2&#45;&gt;HX6 -->
<g id="edge4" class="edge"><title>HX2&#45;&gt;HX6</title>
<path fill="none" stroke="black" d="M205.5,-239.946C205.5,-232.122 205.5,-224.279 205.5,-217.429"/>
<polygon fill="black" stroke="black" points="203.75,-240.346 205.5,-245.347 207.25,-240.347 203.75,-240.346"/>
</g>
<!-- UX1 -->
<g id="node11" class="node"><title>UX1</title>
<polygon fill="#ccebc5" stroke="black" points="310,-167.5 310,-222.5 413,-222.5 413,-167.5 310,-167.5"/>
<text text-anchor="start" x="345.5" y="-215.5" font-family="Times New Roman,serif" font-weight="bold" font-size="10.00">Hazard </text>
<polyline fill="none" stroke="black" points="310,-211.5 413,-211.5 "/>
<text text-anchor="start" x="311" y="-203.5" font-family="Times New Roman,serif" font-size="10.00">CX5 The human operator</text>
<text text-anchor="start" x="322.5" y="-192.5" font-family="Times New Roman,serif" font-size="10.00">doesn&#39;t understand</text>
<text text-anchor="start" x="329.5" y="-181.5" font-family="Times New Roman,serif" font-size="10.00">the cause of the</text>
<text text-anchor="start" x="312.5" y="-170.5" font-family="Times New Roman,serif" font-size="10.00">communication problem.</text>
</g>
<!-- HX2&#45;&gt;UX1 -->
<g id="edge10" class="edge"><title>HX2&#45;&gt;UX1</title>
<path fill="none" stroke="black" d="M258.517,-253.433C276.445,-243.435 296.341,-232.338 313.829,-222.586"/>
<polygon fill="black" stroke="black" points="257.519,-251.986 254.004,-255.95 259.223,-255.043 257.519,-251.986"/>
</g>
<!-- UX2 -->
<g id="node10" class="node"><title>UX2</title>
<polygon fill="#ffffcc" stroke="black" points="0,-89.5 0,-144.5 103,-144.5 103,-89.5 0,-89.5"/>
<text text-anchor="start" x="35.5" y="-137.5" font-family="Times New Roman,serif" font-weight="bold" font-size="10.00">Hazard </text>
<polyline fill="none" stroke="black" points="0,-133.5 103,-133.5 "/>
<text text-anchor="start" x="1" y="-125.5" font-family="Times New Roman,serif" font-size="10.00">CX1 The human operator</text>
<text text-anchor="start" x="12.5" y="-114.5" font-family="Times New Roman,serif" font-size="10.00">is unable to control</text>
<text text-anchor="start" x="13.5" y="-103.5" font-family="Times New Roman,serif" font-size="10.00">the UAV using the</text>
<text text-anchor="start" x="9.5" y="-92.5" font-family="Times New Roman,serif" font-size="10.00">hand&#45;held controller.</text>
</g>
<!-- HX5&#45;&gt;UX2 -->
<g id="edge9" class="edge"><title>HX5&#45;&gt;UX2</title>
<path fill="none" stroke="black" d="M51.5,-162.154C51.5,-156.344 51.5,-150.336 51.5,-144.695"/>
<polygon fill="black" stroke="black" points="49.7501,-162.419 51.5,-167.419 53.2501,-162.419 49.7501,-162.419"/>
</g>
<!-- HX4 -->
<g id="node5" class="node"><title>HX4</title>
<polygon fill="#f5f5f5" stroke="black" points="263.5,-89.5 263.5,-144.5 343.5,-144.5 343.5,-89.5 263.5,-89.5"/>
<text text-anchor="start" x="287.5" y="-137.5" font-family="Times New Roman,serif" font-weight="bold" font-size="10.00">Hazard </text>
<polyline fill="none" stroke="black" points="263.5,-133.5 343.5,-133.5 "/>
<text text-anchor="start" x="264.5" y="-125.5" font-family="Times New Roman,serif" font-size="10.00">C3: Communication</text>
<text text-anchor="start" x="273" y="-114.5" font-family="Times New Roman,serif" font-size="10.00">failure between</text>
<text text-anchor="start" x="291" y="-103.5" font-family="Times New Roman,serif" font-size="10.00">UAVs</text>
<polyline fill="none" stroke="black" points="263.5,-100.5 343.5,-100.5 "/>
<text text-anchor="start" x="288" y="-92.5" font-family="Times New Roman,serif" font-size="10.00">xref:S11</text>
</g>
<!-- UX3 -->
<g id="node8" class="node"><title>UX3</title>
<polygon fill="#ffffcc" stroke="black" points="257.5,-0.5 257.5,-66.5 363.5,-66.5 363.5,-0.5 257.5,-0.5"/>
<text text-anchor="start" x="294.5" y="-59.5" font-family="Times New Roman,serif" font-weight="bold" font-size="10.00">Hazard </text>
<polyline fill="none" stroke="black" points="257.5,-55.5 363.5,-55.5 "/>
<text text-anchor="start" x="274.5" y="-47.5" font-family="Times New Roman,serif" font-size="10.00">CX4 The operator</text>
<text text-anchor="start" x="258.5" y="-36.5" font-family="Times New Roman,serif" font-size="10.00">cannot rely on forwarding</text>
<text text-anchor="start" x="265.5" y="-25.5" font-family="Times New Roman,serif" font-size="10.00">of messages to remote</text>
<text text-anchor="start" x="262" y="-14.5" font-family="Times New Roman,serif" font-size="10.00">UAVs via UAV&#45;to&#45;UAV</text>
<text text-anchor="start" x="287.5" y="-3.5" font-family="Times New Roman,serif" font-size="10.00">messaging.</text>
</g>
<!-- HX4&#45;&gt;UX3 -->
<g id="edge6" class="edge"><title>HX4&#45;&gt;UX3</title>
<path fill="none" stroke="black" d="M306.238,-84.1244C306.731,-78.3829 307.245,-72.3943 307.739,-66.6451"/>
<polygon fill="black" stroke="black" points="304.476,-84.1824 305.792,-89.3139 307.964,-84.482 304.476,-84.1824"/>
</g>
<!-- HX6&#45;&gt;HX3 -->
<g id="edge3" class="edge"><title>HX6&#45;&gt;HX3</title>
<path fill="none" stroke="black" d="M199.639,-167.799C197.974,-160.353 196.158,-152.238 194.486,-144.76"/>
<polygon fill="black" stroke="black" points="197.965,-168.332 200.765,-172.83 201.381,-167.568 197.965,-168.332"/>
</g>
<!-- HX6&#45;&gt;HX4 -->
<g id="edge5" class="edge"><title>HX6&#45;&gt;HX4</title>
<path fill="none" stroke="black" d="M236.814,-169.716C247.069,-161.763 258.517,-152.885 268.994,-144.76"/>
<polygon fill="black" stroke="black" points="235.677,-168.383 232.798,-172.83 237.822,-171.148 235.677,-168.383"/>
</g>
</g>
</svg>
