<?xml version="1.0" encoding="UTF-8" standalone="no"?>
<!DOCTYPE svg PUBLIC "-//W3C//DTD SVG 1.1//EN"
 "http://www.w3.org/Graphics/SVG/1.1/DTD/svg11.dtd">
<!-- Generated by graphviz version 2.38.0 (20140413.2041)
 -->
<!-- Title: g Pages: 1 -->
<svg width="383pt" height="312pt"
 viewBox="0.00 0.00 383.00 312.00" xmlns="http://www.w3.org/2000/svg" xmlns:xlink="http://www.w3.org/1999/xlink">
<g id="graph0" class="graph" transform="scale(1 1) rotate(0) translate(0 312)">
<title>g</title>
<polygon fill="white" stroke="none" points="0,-0 0,-312 383,-312 383,-0 0,-0"/>
<!-- HX1 -->
<g id="node1" class="node"><title>HX1</title>
<polygon fill="#f5f5f5" stroke="black" points="160.5,-289.5 160.5,-311.5 220.5,-311.5 220.5,-289.5 160.5,-289.5"/>
<text text-anchor="start" x="174.5" y="-304.5" font-family="Times New Roman,serif" font-weight="bold" font-size="10.00">Hazard </text>
<polyline fill="none" stroke="black" points="160.5,-300.5 220.5,-300.5 "/>
<text text-anchor="start" x="161.5" y="-292.5" font-family="Times New Roman,serif" font-size="10.00">System hazard</text>
</g>
<!-- HX2 -->
<g id="node3" class="node"><title>HX2</title>
<polygon fill="#f5f5f5" stroke="black" points="142,-203.5 142,-280.5 239,-280.5 239,-203.5 142,-203.5"/>
<text text-anchor="start" x="174.5" y="-273.5" font-family="Times New Roman,serif" font-weight="bold" font-size="10.00">Hazard </text>
<polyline fill="none" stroke="black" points="142,-269.5 239,-269.5 "/>
<text text-anchor="start" x="151.5" y="-261.5" font-family="Times New Roman,serif" font-size="10.00">C1: Communication</text>
<text text-anchor="start" x="157.5" y="-250.5" font-family="Times New Roman,serif" font-size="10.00">failure &#160;e.g., GCS</text>
<text text-anchor="start" x="160.5" y="-239.5" font-family="Times New Roman,serif" font-size="10.00">failure &#160;Loss of</text>
<text text-anchor="start" x="161" y="-228.5" font-family="Times New Roman,serif" font-size="10.00">wireless signal</text>
<text text-anchor="start" x="143" y="-217.5" font-family="Times New Roman,serif" font-size="10.00">Jammed communication</text>
<polyline fill="none" stroke="black" points="142,-214.5 239,-214.5 "/>
<text text-anchor="start" x="173.5" y="-206.5" font-family="Times New Roman,serif" font-size="10.00">xref: W1</text>
</g>
<!-- HX1&#45;&gt;HX2 -->
<g id="edge1" class="edge"><title>HX1&#45;&gt;HX2</title>
<path fill="none" stroke="black" d="M190.5,-284.281C190.5,-283.195 190.5,-282.075 190.5,-280.931"/>
<polygon fill="black" stroke="black" points="188.75,-284.399 190.5,-289.399 192.25,-284.399 188.75,-284.399"/>
</g>
<!-- HX3 -->
<g id="node2" class="node"><title>HX3</title>
<polygon fill="#f5f5f5" stroke="black" points="133.5,-75.5 133.5,-130.5 213.5,-130.5 213.5,-75.5 133.5,-75.5"/>
<text text-anchor="start" x="157.5" y="-123.5" font-family="Times New Roman,serif" font-weight="bold" font-size="10.00">Hazard </text>
<polyline fill="none" stroke="black" points="133.5,-119.5 213.5,-119.5 "/>
<text text-anchor="start" x="134.5" y="-111.5" font-family="Times New Roman,serif" font-size="10.00">C2: Communication</text>
<text text-anchor="start" x="143" y="-100.5" font-family="Times New Roman,serif" font-size="10.00">failure between</text>
<text text-anchor="start" x="135.5" y="-89.5" font-family="Times New Roman,serif" font-size="10.00">ground &#160;and UAVs</text>
<polyline fill="none" stroke="black" points="133.5,-86.5 213.5,-86.5 "/>
<text text-anchor="start" x="158" y="-78.5" font-family="Times New Roman,serif" font-size="10.00">xref:S11</text>
</g>
<!-- UX4 -->
<g id="node7" class="node"><title>UX4</title>
<polygon fill="#ccebc5" stroke="black" points="29,-0.5 29,-66.5 120,-66.5 120,-0.5 29,-0.5"/>
<text text-anchor="start" x="58.5" y="-59.5" font-family="Times New Roman,serif" font-weight="bold" font-size="10.00">Hazard </text>
<polyline fill="none" stroke="black" points="29,-55.5 120,-55.5 "/>
<text text-anchor="start" x="38.5" y="-47.5" font-family="Times New Roman,serif" font-size="10.00">CX4 The operator</text>
<text text-anchor="start" x="35.5" y="-36.5" font-family="Times New Roman,serif" font-size="10.00">is unable to receive</text>
<text text-anchor="start" x="42" y="-25.5" font-family="Times New Roman,serif" font-size="10.00">status data from</text>
<text text-anchor="start" x="34" y="-14.5" font-family="Times New Roman,serif" font-size="10.00">the UAVs and loses</text>
<text text-anchor="start" x="30" y="-3.5" font-family="Times New Roman,serif" font-size="10.00">situational awareness.</text>
</g>
<!-- HX3&#45;&gt;UX4 -->
<g id="edge7" class="edge"><title>HX3&#45;&gt;UX4</title>
<path fill="none" stroke="black" d="M129.983,-72.3293C126.744,-70.121 123.471,-67.8891 120.219,-65.6722"/>
<polygon fill="black" stroke="black" points="129.256,-73.9514 134.373,-75.3222 131.227,-71.0596 129.256,-73.9514"/>
</g>
<!-- UX5 -->
<g id="node9" class="node"><title>UX5</title>
<polygon fill="#ffffcc" stroke="black" points="134,-0.5 134,-66.5 213,-66.5 213,-0.5 134,-0.5"/>
<text text-anchor="start" x="157.5" y="-59.5" font-family="Times New Roman,serif" font-weight="bold" font-size="10.00">Hazard </text>
<polyline fill="none" stroke="black" points="134,-55.5 213,-55.5 "/>
<text text-anchor="start" x="137.5" y="-47.5" font-family="Times New Roman,serif" font-size="10.00">CX5 The operator</text>
<text text-anchor="start" x="139" y="-36.5" font-family="Times New Roman,serif" font-size="10.00">is unable to send</text>
<text text-anchor="start" x="135" y="-25.5" font-family="Times New Roman,serif" font-size="10.00">directives to UAVs</text>
<text text-anchor="start" x="141.5" y="-14.5" font-family="Times New Roman,serif" font-size="10.00">and loses direct</text>
<text text-anchor="start" x="158" y="-3.5" font-family="Times New Roman,serif" font-size="10.00">control.</text>
</g>
<!-- HX3&#45;&gt;UX5 -->
<g id="edge8" class="edge"><title>HX3&#45;&gt;UX5</title>
<path fill="none" stroke="black" d="M173.5,-70.2788C173.5,-69.1199 173.5,-67.9579 173.5,-66.7981"/>
<polygon fill="black" stroke="black" points="171.75,-70.3222 173.5,-75.3222 175.25,-70.3222 171.75,-70.3222"/>
</g>
<!-- HX5 -->
<g id="node4" class="node"><title>HX5</title>
<polygon fill="#f5f5f5" stroke="black" points="2,-139.5 2,-194.5 101,-194.5 101,-139.5 2,-139.5"/>
<text text-anchor="start" x="35.5" y="-187.5" font-family="Times New Roman,serif" font-weight="bold" font-size="10.00">Hazard </text>
<polyline fill="none" stroke="black" points="2,-183.5 101,-183.5 "/>
<text text-anchor="start" x="3" y="-175.5" font-family="Times New Roman,serif" font-size="10.00">C4: Hand held controller</text>
<text text-anchor="start" x="18.5" y="-164.5" font-family="Times New Roman,serif" font-size="10.00">for manual flight</text>
<text text-anchor="start" x="14.5" y="-153.5" font-family="Times New Roman,serif" font-size="10.00">loses connectivity</text>
<text text-anchor="start" x="36" y="-142.5" font-family="Times New Roman,serif" font-size="10.00">to UAV</text>
</g>
<!-- HX2&#45;&gt;HX5 -->
<g id="edge2" class="edge"><title>HX2&#45;&gt;HX5</title>
<path fill="none" stroke="black" d="M137.219,-213.018C125.406,-206.814 112.931,-200.262 101.265,-194.136"/>
<polygon fill="black" stroke="black" points="136.644,-214.693 141.885,-215.468 138.272,-211.594 136.644,-214.693"/>
</g>
<!-- HX6 -->
<g id="node6" class="node"><title>HX6</title>
<polygon fill="#f5f5f5" stroke="black" points="115.5,-145 115.5,-189 265.5,-189 265.5,-145 115.5,-145"/>
<text text-anchor="start" x="174.5" y="-182" font-family="Times New Roman,serif" font-weight="bold" font-size="10.00">Hazard </text>
<polyline fill="none" stroke="black" points="115.5,-178 265.5,-178 "/>
<text text-anchor="start" x="152.5" y="-170" font-family="Times New Roman,serif" font-size="10.00">C5: Ground control</text>
<text text-anchor="start" x="116.5" y="-159" font-family="Times New Roman,serif" font-size="10.00">system for multi&#45;UAVcommunication</text>
<text text-anchor="start" x="182" y="-148" font-family="Times New Roman,serif" font-size="10.00">fails</text>
</g>
<!-- HX2&#45;&gt;HX6 -->
<g id="edge4" class="edge"><title>HX2&#45;&gt;HX6</title>
<path fill="none" stroke="black" d="M190.5,-197.769C190.5,-194.77 190.5,-191.833 190.5,-189.044"/>
<polygon fill="black" stroke="black" points="188.75,-198.217 190.5,-203.217 192.25,-198.217 188.75,-198.217"/>
</g>
<!-- UX1 -->
<g id="node11" class="node"><title>UX1</title>
<polygon fill="#ccebc5" stroke="black" points="280,-139.5 280,-194.5 383,-194.5 383,-139.5 280,-139.5"/>
<text text-anchor="start" x="315.5" y="-187.5" font-family="Times New Roman,serif" font-weight="bold" font-size="10.00">Hazard </text>
<polyline fill="none" stroke="black" points="280,-183.5 383,-183.5 "/>
<text text-anchor="start" x="281" y="-175.5" font-family="Times New Roman,serif" font-size="10.00">CX1 The human operator</text>
<text text-anchor="start" x="292.5" y="-164.5" font-family="Times New Roman,serif" font-size="10.00">doesn&#39;t understand</text>
<text text-anchor="start" x="299.5" y="-153.5" font-family="Times New Roman,serif" font-size="10.00">the cause of the</text>
<text text-anchor="start" x="282.5" y="-142.5" font-family="Times New Roman,serif" font-size="10.00">communication problem.</text>
</g>
<!-- HX2&#45;&gt;UX1 -->
<g id="edge10" class="edge"><title>HX2&#45;&gt;UX1</title>
<path fill="none" stroke="black" d="M243.717,-213.448C255.602,-207.295 268.186,-200.78 280,-194.663"/>
<polygon fill="black" stroke="black" points="242.66,-212.025 239.024,-215.878 244.269,-215.133 242.66,-212.025"/>
</g>
<!-- UX2 -->
<g id="node10" class="node"><title>UX2</title>
<polygon fill="#ffffcc" stroke="black" points="0,-75.5 0,-130.5 103,-130.5 103,-75.5 0,-75.5"/>
<text text-anchor="start" x="35.5" y="-123.5" font-family="Times New Roman,serif" font-weight="bold" font-size="10.00">Hazard </text>
<polyline fill="none" stroke="black" points="0,-119.5 103,-119.5 "/>
<text text-anchor="start" x="1" y="-111.5" font-family="Times New Roman,serif" font-size="10.00">CX2 The human operator</text>
<text text-anchor="start" x="12.5" y="-100.5" font-family="Times New Roman,serif" font-size="10.00">is unable to control</text>
<text text-anchor="start" x="13.5" y="-89.5" font-family="Times New Roman,serif" font-size="10.00">the UAV using the</text>
<text text-anchor="start" x="9.5" y="-78.5" font-family="Times New Roman,serif" font-size="10.00">hand&#45;held controller.</text>
</g>
<!-- HX5&#45;&gt;UX2 -->
<g id="edge9" class="edge"><title>HX5&#45;&gt;UX2</title>
<path fill="none" stroke="black" d="M51.5,-134.169C51.5,-132.986 51.5,-131.804 51.5,-130.631"/>
<polygon fill="black" stroke="black" points="49.7501,-134.347 51.5,-139.347 53.2501,-134.347 49.7501,-134.347"/>
</g>
<!-- HX4 -->
<g id="node5" class="node"><title>HX4</title>
<polygon fill="#f5f5f5" stroke="black" points="233.5,-75.5 233.5,-130.5 313.5,-130.5 313.5,-75.5 233.5,-75.5"/>
<text text-anchor="start" x="257.5" y="-123.5" font-family="Times New Roman,serif" font-weight="bold" font-size="10.00">Hazard </text>
<polyline fill="none" stroke="black" points="233.5,-119.5 313.5,-119.5 "/>
<text text-anchor="start" x="234.5" y="-111.5" font-family="Times New Roman,serif" font-size="10.00">C3: Communication</text>
<text text-anchor="start" x="243" y="-100.5" font-family="Times New Roman,serif" font-size="10.00">failure between</text>
<text text-anchor="start" x="261" y="-89.5" font-family="Times New Roman,serif" font-size="10.00">UAVs</text>
<polyline fill="none" stroke="black" points="233.5,-86.5 313.5,-86.5 "/>
<text text-anchor="start" x="258" y="-78.5" font-family="Times New Roman,serif" font-size="10.00">xref:S11</text>
</g>
<!-- UX3 -->
<g id="node8" class="node"><title>UX3</title>
<polygon fill="#ffffcc" stroke="black" points="227.5,-0.5 227.5,-66.5 333.5,-66.5 333.5,-0.5 227.5,-0.5"/>
<text text-anchor="start" x="264.5" y="-59.5" font-family="Times New Roman,serif" font-weight="bold" font-size="10.00">Hazard </text>
<polyline fill="none" stroke="black" points="227.5,-55.5 333.5,-55.5 "/>
<text text-anchor="start" x="244.5" y="-47.5" font-family="Times New Roman,serif" font-size="10.00">CX3 The operator</text>
<text text-anchor="start" x="228.5" y="-36.5" font-family="Times New Roman,serif" font-size="10.00">cannot rely on forwarding</text>
<text text-anchor="start" x="235.5" y="-25.5" font-family="Times New Roman,serif" font-size="10.00">of messages to remote</text>
<text text-anchor="start" x="232" y="-14.5" font-family="Times New Roman,serif" font-size="10.00">UAVs via UAV&#45;to&#45;UAV</text>
<text text-anchor="start" x="257.5" y="-3.5" font-family="Times New Roman,serif" font-size="10.00">messaging.</text>
</g>
<!-- HX4&#45;&gt;UX3 -->
<g id="edge6" class="edge"><title>HX4&#45;&gt;UX3</title>
<path fill="none" stroke="black" d="M276.79,-70.2788C276.91,-69.1199 277.03,-67.9579 277.151,-66.7981"/>
<polygon fill="black" stroke="black" points="275.042,-70.1683 276.267,-75.3222 278.523,-70.5294 275.042,-70.1683"/>
</g>
<!-- HX6&#45;&gt;HX3 -->
<g id="edge3" class="edge"><title>HX6&#45;&gt;HX3</title>
<path fill="none" stroke="black" d="M183.238,-139.515C182.442,-136.61 181.63,-133.651 180.833,-130.743"/>
<polygon fill="black" stroke="black" points="181.64,-140.304 184.65,-144.663 185.015,-139.378 181.64,-140.304"/>
</g>
<!-- HX6&#45;&gt;HX4 -->
<g id="edge5" class="edge"><title>HX6&#45;&gt;HX4</title>
<path fill="none" stroke="black" d="M223.117,-141.635C227.999,-137.989 233.052,-134.214 237.99,-130.525"/>
<polygon fill="black" stroke="black" points="222.022,-140.269 219.064,-144.663 224.117,-143.073 222.022,-140.269"/>
</g>
</g>
</svg>
