<?xml version="1.0" encoding="UTF-8" standalone="no"?>
<!DOCTYPE svg PUBLIC "-//W3C//DTD SVG 1.1//EN"
 "http://www.w3.org/Graphics/SVG/1.1/DTD/svg11.dtd">
<!-- Generated by graphviz version 2.38.0 (20140413.2041)
 -->
<!-- Title: g Pages: 1 -->
<svg width="844pt" height="442pt"
 viewBox="0.00 0.00 843.50 442.00" xmlns="http://www.w3.org/2000/svg" xmlns:xlink="http://www.w3.org/1999/xlink">
<g id="graph0" class="graph" transform="scale(1 1) rotate(0) translate(0 442)">
<title>g</title>
<polygon fill="white" stroke="none" points="0,-0 0,-442 843.5,-442 843.5,-0 0,-0"/>
<!-- HX1 -->
<g id="node1" class="node"><title>HX1</title>
<polygon fill="#f5f5f5" stroke="black" points="369,-419.5 369,-441.5 429,-441.5 429,-419.5 369,-419.5"/>
<text text-anchor="start" x="383" y="-434.5" font-family="Times New Roman,serif" font-weight="bold" font-size="10.00">Hazard </text>
<polyline fill="none" stroke="black" points="369,-430.5 429,-430.5 "/>
<text text-anchor="start" x="370" y="-422.5" font-family="Times New Roman,serif" font-size="10.00">System hazard</text>
</g>
<!-- HX2 -->
<g id="node4" class="node"><title>HX2</title>
<polygon fill="#f5f5f5" stroke="black" points="355.5,-366.5 355.5,-410.5 442.5,-410.5 442.5,-366.5 355.5,-366.5"/>
<text text-anchor="start" x="383" y="-403.5" font-family="Times New Roman,serif" font-weight="bold" font-size="10.00">Hazard </text>
<polyline fill="none" stroke="black" points="355.5,-399.5 442.5,-399.5 "/>
<text text-anchor="start" x="356.5" y="-391.5" font-family="Times New Roman,serif" font-size="10.00">P1: Physical Preflight</text>
<text text-anchor="start" x="360.5" y="-380.5" font-family="Times New Roman,serif" font-size="10.00">UAV &#160;setup misses</text>
<text text-anchor="start" x="364.5" y="-369.5" font-family="Times New Roman,serif" font-size="10.00">important checks</text>
</g>
<!-- HX1&#45;&gt;HX2 -->
<g id="edge1" class="edge"><title>HX1&#45;&gt;HX2</title>
<path fill="none" stroke="black" d="M399,-414.346C399,-413.142 399,-411.913 399,-410.679"/>
<polygon fill="black" stroke="black" points="397.25,-414.406 399,-419.406 400.75,-414.406 397.25,-414.406"/>
</g>
<!-- HX3 -->
<g id="node2" class="node"><title>HX3</title>
<polygon fill="#f5f5f5" stroke="black" points="107,-308 107,-352 179,-352 179,-308 107,-308"/>
<text text-anchor="start" x="127" y="-345" font-family="Times New Roman,serif" font-weight="bold" font-size="10.00">Hazard </text>
<polyline fill="none" stroke="black" points="107,-341 179,-341 "/>
<text text-anchor="start" x="108" y="-333" font-family="Times New Roman,serif" font-size="10.00">P2: UAVs are not</text>
<text text-anchor="start" x="111" y="-322" font-family="Times New Roman,serif" font-size="10.00">placed correctly</text>
<text text-anchor="start" x="122.5" y="-311" font-family="Times New Roman,serif" font-size="10.00">for launch</text>
</g>
<!-- UX2 -->
<g id="node19" class="node"><title>UX2</title>
<polygon fill="#b3cde3" stroke="black" points="0,-227.5 0,-282.5 86,-282.5 86,-227.5 0,-227.5"/>
<text text-anchor="start" x="27" y="-275.5" font-family="Times New Roman,serif" font-weight="bold" font-size="10.00">Hazard </text>
<polyline fill="none" stroke="black" points="0,-271.5 86,-271.5 "/>
<text text-anchor="start" x="1" y="-263.5" font-family="Times New Roman,serif" font-size="10.00">UX1 Operator places</text>
<text text-anchor="start" x="5.5" y="-252.5" font-family="Times New Roman,serif" font-size="10.00">UAVs too close to</text>
<text text-anchor="start" x="11" y="-241.5" font-family="Times New Roman,serif" font-size="10.00">each other prior</text>
<text text-anchor="start" x="24" y="-230.5" font-family="Times New Roman,serif" font-size="10.00">to launch</text>
</g>
<!-- HX3&#45;&gt;UX2 -->
<g id="edge9" class="edge"><title>HX3&#45;&gt;UX2</title>
<path fill="none" stroke="black" d="M108.186,-304.892C103.07,-301.273 97.8819,-297.562 93,-294 87.9794,-290.337 82.7158,-286.422 77.5662,-282.547"/>
<polygon fill="black" stroke="black" points="107.363,-306.453 112.458,-307.904 109.38,-303.592 107.363,-306.453"/>
</g>
<!-- UX1 -->
<g id="node20" class="node"><title>UX1</title>
<polygon fill="#b3cde3" stroke="black" points="100,-222 100,-288 186,-288 186,-222 100,-222"/>
<text text-anchor="start" x="127" y="-281" font-family="Times New Roman,serif" font-weight="bold" font-size="10.00">Hazard </text>
<polyline fill="none" stroke="black" points="100,-277 186,-277 "/>
<text text-anchor="start" x="101" y="-269" font-family="Times New Roman,serif" font-size="10.00">UX2 Operator places</text>
<text text-anchor="start" x="108" y="-258" font-family="Times New Roman,serif" font-size="10.00">UAVs in location</text>
<text text-anchor="start" x="110.5" y="-247" font-family="Times New Roman,serif" font-size="10.00">with insufficient</text>
<text text-anchor="start" x="113.5" y="-236" font-family="Times New Roman,serif" font-size="10.00">clearance prior</text>
<text text-anchor="start" x="124" y="-225" font-family="Times New Roman,serif" font-size="10.00">to launch</text>
</g>
<!-- HX3&#45;&gt;UX1 -->
<g id="edge8" class="edge"><title>HX3&#45;&gt;UX1</title>
<path fill="none" stroke="black" d="M143,-302.852C143,-298.106 143,-293.106 143,-288.21"/>
<polygon fill="black" stroke="black" points="141.25,-302.885 143,-307.885 144.75,-302.885 141.25,-302.885"/>
</g>
<!-- HX11 -->
<g id="node3" class="node"><title>HX11</title>
<polygon fill="#f5f5f5" stroke="black" points="200.5,-238.5 200.5,-271.5 287.5,-271.5 287.5,-238.5 200.5,-238.5"/>
<text text-anchor="start" x="228" y="-264.5" font-family="Times New Roman,serif" font-weight="bold" font-size="10.00">Hazard </text>
<polyline fill="none" stroke="black" points="200.5,-260.5 287.5,-260.5 "/>
<text text-anchor="start" x="209.5" y="-252.5" font-family="Times New Roman,serif" font-size="10.00">P4: Camera is not</text>
<text text-anchor="start" x="201.5" y="-241.5" font-family="Times New Roman,serif" font-size="10.00">functioning correctly</text>
</g>
<!-- HX2&#45;&gt;HX3 -->
<g id="edge2" class="edge"><title>HX2&#45;&gt;HX3</title>
<path fill="none" stroke="black" d="M350.234,-376.737C300.297,-365.716 223.84,-348.842 179.091,-338.965"/>
<polygon fill="black" stroke="black" points="350.023,-378.483 355.283,-377.852 350.778,-375.065 350.023,-378.483"/>
</g>
<!-- HX4 -->
<g id="node7" class="node"><title>HX4</title>
<polygon fill="#f5f5f5" stroke="black" points="342.5,-319 342.5,-341 455.5,-341 455.5,-319 342.5,-319"/>
<text text-anchor="start" x="383" y="-334" font-family="Times New Roman,serif" font-weight="bold" font-size="10.00">Hazard </text>
<polyline fill="none" stroke="black" points="342.5,-330 455.5,-330 "/>
<text text-anchor="start" x="343.5" y="-322" font-family="Times New Roman,serif" font-size="10.00">P3: UAV is not &#160;flight&#45;ready</text>
</g>
<!-- HX2&#45;&gt;HX4 -->
<g id="edge3" class="edge"><title>HX2&#45;&gt;HX4</title>
<path fill="none" stroke="black" d="M399,-361.095C399,-353.998 399,-346.745 399,-341.138"/>
<polygon fill="black" stroke="black" points="397.25,-361.461 399,-366.461 400.75,-361.462 397.25,-361.461"/>
</g>
<!-- UX11 -->
<g id="node16" class="node"><title>UX11</title>
<polygon fill="#ffffcc" stroke="black" points="470,-302.5 470,-357.5 596,-357.5 596,-302.5 470,-302.5"/>
<text text-anchor="start" x="517" y="-350.5" font-family="Times New Roman,serif" font-weight="bold" font-size="10.00">Hazard </text>
<polyline fill="none" stroke="black" points="470,-346.5 596,-346.5 "/>
<text text-anchor="start" x="496.5" y="-338.5" font-family="Times New Roman,serif" font-size="10.00">UX12 It is difficult</text>
<text text-anchor="start" x="504.5" y="-327.5" font-family="Times New Roman,serif" font-size="10.00">for the user to</text>
<text text-anchor="start" x="492" y="-316.5" font-family="Times New Roman,serif" font-size="10.00">check and configure</text>
<text text-anchor="start" x="471" y="-305.5" font-family="Times New Roman,serif" font-size="10.00">multiple UAVs simultaneously.</text>
</g>
<!-- HX2&#45;&gt;UX11 -->
<g id="edge20" class="edge"><title>HX2&#45;&gt;UX11</title>
<path fill="none" stroke="black" d="M447.466,-367.065C454.709,-364.011 462.266,-360.824 469.76,-357.665"/>
<polygon fill="black" stroke="black" points="446.433,-365.601 442.506,-369.156 447.793,-368.826 446.433,-365.601"/>
</g>
<!-- HX12 -->
<g id="node5" class="node"><title>HX12</title>
<polygon fill="#f5f5f5" stroke="black" points="302,-238.5 302,-271.5 386,-271.5 386,-238.5 302,-238.5"/>
<text text-anchor="start" x="328" y="-264.5" font-family="Times New Roman,serif" font-weight="bold" font-size="10.00">Hazard </text>
<polyline fill="none" stroke="black" points="302,-260.5 386,-260.5 "/>
<text text-anchor="start" x="303" y="-252.5" font-family="Times New Roman,serif" font-size="10.00">P5: No geofence has</text>
<text text-anchor="start" x="310" y="-241.5" font-family="Times New Roman,serif" font-size="10.00">been established</text>
</g>
<!-- UX14 -->
<g id="node11" class="node"><title>UX14</title>
<polygon fill="#ccebc5" stroke="black" points="181.5,-119.5 181.5,-174.5 270.5,-174.5 270.5,-119.5 181.5,-119.5"/>
<text text-anchor="start" x="210" y="-167.5" font-family="Times New Roman,serif" font-weight="bold" font-size="10.00">Hazard </text>
<polyline fill="none" stroke="black" points="181.5,-163.5 270.5,-163.5 "/>
<text text-anchor="start" x="182.5" y="-155.5" font-family="Times New Roman,serif" font-size="10.00">UX3: User is unaware</text>
<text text-anchor="start" x="195" y="-144.5" font-family="Times New Roman,serif" font-size="10.00">that the system</text>
<text text-anchor="start" x="191.5" y="-133.5" font-family="Times New Roman,serif" font-size="10.00">is not configured</text>
<text text-anchor="start" x="208" y="-122.5" font-family="Times New Roman,serif" font-size="10.00">correctly</text>
</g>
<!-- HX12&#45;&gt;UX14 -->
<g id="edge18" class="edge"><title>HX12&#45;&gt;UX14</title>
<path fill="none" stroke="black" d="M321.293,-234.717C313.261,-228.355 303.984,-221.505 295,-216 287.88,-211.637 284.656,-213.042 278,-208 265.694,-198.678 254.202,-186.028 245.168,-174.747"/>
<polygon fill="black" stroke="black" points="320.624,-236.424 325.618,-238.19 322.815,-233.695 320.624,-236.424"/>
</g>
<!-- HX5 -->
<g id="node6" class="node"><title>HX5</title>
<polygon fill="#f5f5f5" stroke="black" points="400,-238.5 400,-271.5 510,-271.5 510,-238.5 400,-238.5"/>
<text text-anchor="start" x="439" y="-264.5" font-family="Times New Roman,serif" font-weight="bold" font-size="10.00">Hazard </text>
<polyline fill="none" stroke="black" points="400,-260.5 510,-260.5 "/>
<text text-anchor="start" x="401" y="-252.5" font-family="Times New Roman,serif" font-size="10.00">P6: UAV is not &#160;configured</text>
<text text-anchor="start" x="418.5" y="-241.5" font-family="Times New Roman,serif" font-size="10.00">correctly for flight</text>
</g>
<!-- HX5&#45;&gt;UX14 -->
<g id="edge14" class="edge"><title>HX5&#45;&gt;UX14</title>
<path fill="none" stroke="black" d="M431.036,-235.569C420.046,-228.137 406.481,-220.313 393,-216 368.601,-208.194 300.919,-219.443 278,-208 263.201,-200.611 250.85,-186.966 241.904,-174.553"/>
<polygon fill="black" stroke="black" points="430.162,-237.093 435.27,-238.499 432.154,-234.215 430.162,-237.093"/>
</g>
<!-- UX6 -->
<g id="node12" class="node"><title>UX6</title>
<polygon fill="#b3cde3" stroke="black" points="285,-86.5 285,-207.5 389,-207.5 389,-86.5 285,-86.5"/>
<text text-anchor="start" x="321" y="-200.5" font-family="Times New Roman,serif" font-weight="bold" font-size="10.00">Hazard </text>
<polyline fill="none" stroke="black" points="285,-196.5 389,-196.5 "/>
<text text-anchor="start" x="286" y="-188.5" font-family="Times New Roman,serif" font-size="10.00">UX6 User has configured</text>
<text text-anchor="start" x="308" y="-177.5" font-family="Times New Roman,serif" font-size="10.00">autopilot in an</text>
<text text-anchor="start" x="303" y="-166.5" font-family="Times New Roman,serif" font-size="10.00">unsafe way (e.g.,</text>
<text text-anchor="start" x="304" y="-155.5" font-family="Times New Roman,serif" font-size="10.00">setting minimum</text>
<text text-anchor="start" x="301" y="-144.5" font-family="Times New Roman,serif" font-size="10.00">number of satelite</text>
<text text-anchor="start" x="305" y="-133.5" font-family="Times New Roman,serif" font-size="10.00">fixes required to</text>
<text text-anchor="start" x="305.5" y="-122.5" font-family="Times New Roman,serif" font-size="10.00">1, or setting the</text>
<text text-anchor="start" x="295.5" y="-111.5" font-family="Times New Roman,serif" font-size="10.00">RTL altitude illegally</text>
<text text-anchor="start" x="296" y="-100.5" font-family="Times New Roman,serif" font-size="10.00">high or dangerously</text>
<text text-anchor="start" x="328" y="-89.5" font-family="Times New Roman,serif" font-size="10.00">low)</text>
</g>
<!-- HX5&#45;&gt;UX6 -->
<g id="edge11" class="edge"><title>HX5&#45;&gt;UX6</title>
<path fill="none" stroke="black" d="M430.069,-235.241C419.629,-227.127 407.503,-217.361 397,-208 394.361,-205.648 391.689,-203.209 389.014,-200.721"/>
<polygon fill="black" stroke="black" points="429.104,-236.706 434.13,-238.379 431.244,-233.937 429.104,-236.706"/>
</g>
<!-- UX5 -->
<g id="node14" class="node"><title>UX5</title>
<polygon fill="#b3cde3" stroke="black" points="403.5,-108.5 403.5,-185.5 506.5,-185.5 506.5,-108.5 403.5,-108.5"/>
<text text-anchor="start" x="439" y="-178.5" font-family="Times New Roman,serif" font-weight="bold" font-size="10.00">Hazard </text>
<polyline fill="none" stroke="black" points="403.5,-174.5 506.5,-174.5 "/>
<text text-anchor="start" x="409" y="-166.5" font-family="Times New Roman,serif" font-size="10.00">UX1 User has disabled</text>
<text text-anchor="start" x="427" y="-155.5" font-family="Times New Roman,serif" font-size="10.00">critical arming</text>
<text text-anchor="start" x="425" y="-144.5" font-family="Times New Roman,serif" font-size="10.00">checks prior to</text>
<text text-anchor="start" x="404.5" y="-133.5" font-family="Times New Roman,serif" font-size="10.00">launch (e.g., deactivating</text>
<text text-anchor="start" x="419" y="-122.5" font-family="Times New Roman,serif" font-size="10.00">the GPS fix during</text>
<text text-anchor="start" x="414" y="-111.5" font-family="Times New Roman,serif" font-size="10.00">indoor maintenance)</text>
</g>
<!-- HX5&#45;&gt;UX5 -->
<g id="edge10" class="edge"><title>HX5&#45;&gt;UX5</title>
<path fill="none" stroke="black" d="M455,-233.231C455,-219.718 455,-201.697 455,-185.707"/>
<polygon fill="black" stroke="black" points="453.25,-233.359 455,-238.359 456.75,-233.359 453.25,-233.359"/>
</g>
<!-- UX10 -->
<g id="node17" class="node"><title>UX10</title>
<polygon fill="#ccebc5" stroke="black" points="521,-119.5 521,-174.5 629,-174.5 629,-119.5 521,-119.5"/>
<text text-anchor="start" x="559" y="-167.5" font-family="Times New Roman,serif" font-weight="bold" font-size="10.00">Hazard </text>
<polyline fill="none" stroke="black" points="521,-163.5 629,-163.5 "/>
<text text-anchor="start" x="524.5" y="-155.5" font-family="Times New Roman,serif" font-size="10.00">UX8 Operator is unaware</text>
<text text-anchor="start" x="522" y="-144.5" font-family="Times New Roman,serif" font-size="10.00">that the UAV&#39;s parameters</text>
<text text-anchor="start" x="538" y="-133.5" font-family="Times New Roman,serif" font-size="10.00">are not configured</text>
<text text-anchor="start" x="544.5" y="-122.5" font-family="Times New Roman,serif" font-size="10.00">safely for flight</text>
</g>
<!-- HX5&#45;&gt;UX10 -->
<g id="edge12" class="edge"><title>HX5&#45;&gt;UX10</title>
<path fill="none" stroke="black" d="M480.352,-235.252C490.971,-227.14 503.308,-217.372 514,-208 525.953,-197.523 538.571,-185.323 549.209,-174.669"/>
<polygon fill="black" stroke="black" points="479.145,-233.971 476.222,-238.39 481.262,-236.758 479.145,-233.971"/>
</g>
<!-- UX9 -->
<g id="node18" class="node"><title>UX9</title>
<polygon fill="#b3cde3" stroke="black" points="643.5,-119.5 643.5,-174.5 730.5,-174.5 730.5,-119.5 643.5,-119.5"/>
<text text-anchor="start" x="671" y="-167.5" font-family="Times New Roman,serif" font-weight="bold" font-size="10.00">Hazard </text>
<polyline fill="none" stroke="black" points="643.5,-163.5 730.5,-163.5 "/>
<text text-anchor="start" x="644.5" y="-155.5" font-family="Times New Roman,serif" font-size="10.00">UX9 User is unaware</text>
<text text-anchor="start" x="649" y="-144.5" font-family="Times New Roman,serif" font-size="10.00">that the UAV does</text>
<text text-anchor="start" x="645" y="-133.5" font-family="Times New Roman,serif" font-size="10.00">not have appropriate</text>
<text text-anchor="start" x="668.5" y="-122.5" font-family="Times New Roman,serif" font-size="10.00">geofence</text>
</g>
<!-- HX5&#45;&gt;UX9 -->
<g id="edge19" class="edge"><title>HX5&#45;&gt;UX9</title>
<path fill="none" stroke="black" d="M478.96,-235.554C489.948,-228.12 503.514,-220.298 517,-216 542.253,-207.953 612.33,-219.926 636,-208 650.651,-200.618 662.773,-186.973 671.517,-174.559"/>
<polygon fill="black" stroke="black" points="477.841,-234.201 474.726,-238.486 479.833,-237.078 477.841,-234.201"/>
</g>
<!-- HX4&#45;&gt;HX11 -->
<g id="edge6" class="edge"><title>HX4&#45;&gt;HX11</title>
<path fill="none" stroke="black" d="M354.526,-317.415C335.614,-311.638 313.665,-303.776 295,-294 283.263,-287.852 271.323,-279.118 261.95,-271.574"/>
<polygon fill="black" stroke="black" points="354.482,-319.229 359.774,-318.989 355.488,-315.876 354.482,-319.229"/>
</g>
<!-- HX4&#45;&gt;HX12 -->
<g id="edge7" class="edge"><title>HX4&#45;&gt;HX12</title>
<path fill="none" stroke="black" d="M388.117,-314.555C378.795,-302.183 365.397,-284.4 355.816,-271.683"/>
<polygon fill="black" stroke="black" points="386.946,-315.909 391.352,-318.85 389.741,-313.803 386.946,-315.909"/>
</g>
<!-- HX4&#45;&gt;HX5 -->
<g id="edge4" class="edge"><title>HX4&#45;&gt;HX5</title>
<path fill="none" stroke="black" d="M409.832,-314.88C419.333,-302.495 433.128,-284.512 442.969,-271.683"/>
<polygon fill="black" stroke="black" points="408.441,-313.817 406.787,-318.85 411.218,-315.948 408.441,-313.817"/>
</g>
<!-- HX8 -->
<g id="node8" class="node"><title>HX8</title>
<polygon fill="#f5f5f5" stroke="black" points="524,-238.5 524,-271.5 626,-271.5 626,-238.5 524,-238.5"/>
<text text-anchor="start" x="559" y="-264.5" font-family="Times New Roman,serif" font-weight="bold" font-size="10.00">Hazard </text>
<polyline fill="none" stroke="black" points="524,-260.5 626,-260.5 "/>
<text text-anchor="start" x="538" y="-252.5" font-family="Times New Roman,serif" font-size="10.00">P7: The payload is</text>
<text text-anchor="start" x="525" y="-241.5" font-family="Times New Roman,serif" font-size="10.00">too heavy or unbalanced</text>
</g>
<!-- HX4&#45;&gt;HX8 -->
<g id="edge5" class="edge"><title>HX4&#45;&gt;HX8</title>
<path fill="none" stroke="black" d="M424.086,-316.683C435.685,-311.443 449.791,-305.701 463,-302 486.362,-295.455 494.324,-302.627 517,-294 530.952,-288.692 544.996,-279.611 555.769,-271.657"/>
<polygon fill="black" stroke="black" points="423.093,-315.213 419.279,-318.89 424.553,-318.394 423.093,-315.213"/>
</g>
<!-- UX4 -->
<g id="node9" class="node"><title>UX4</title>
<polygon fill="#b3cde3" stroke="black" points="640,-216.5 640,-293.5 748,-293.5 748,-216.5 640,-216.5"/>
<text text-anchor="start" x="678" y="-286.5" font-family="Times New Roman,serif" font-weight="bold" font-size="10.00">Hazard </text>
<polyline fill="none" stroke="black" points="640,-282.5 748,-282.5 "/>
<text text-anchor="start" x="654.5" y="-274.5" font-family="Times New Roman,serif" font-size="10.00">UX11 Operator fails</text>
<text text-anchor="start" x="641" y="-263.5" font-family="Times New Roman,serif" font-size="10.00">to perform flight&#45;readiness</text>
<text text-anchor="start" x="662" y="-252.5" font-family="Times New Roman,serif" font-size="10.00">check and/or fix</text>
<text text-anchor="start" x="664.5" y="-241.5" font-family="Times New Roman,serif" font-size="10.00">problems (e.g.,</text>
<text text-anchor="start" x="661" y="-230.5" font-family="Times New Roman,serif" font-size="10.00">dangling cables,</text>
<text text-anchor="start" x="669.5" y="-219.5" font-family="Times New Roman,serif" font-size="10.00">low battery)</text>
</g>
<!-- HX4&#45;&gt;UX4 -->
<g id="edge13" class="edge"><title>HX4&#45;&gt;UX4</title>
<path fill="none" stroke="black" d="M422.556,-316.708C434.367,-311.161 449.088,-305.157 463,-302 499.882,-293.631 596.893,-305.251 633,-294 635.263,-293.295 637.527,-292.485 639.778,-291.59"/>
<polygon fill="black" stroke="black" points="421.767,-315.145 418.014,-318.885 423.28,-318.301 421.767,-315.145"/>
</g>
<!-- UX3 -->
<g id="node10" class="node"><title>UX3</title>
<polygon fill="#b3cde3" stroke="black" points="744.5,-119.5 744.5,-174.5 843.5,-174.5 843.5,-119.5 744.5,-119.5"/>
<text text-anchor="start" x="778" y="-167.5" font-family="Times New Roman,serif" font-weight="bold" font-size="10.00">Hazard </text>
<polyline fill="none" stroke="black" points="744.5,-163.5 843.5,-163.5 "/>
<text text-anchor="start" x="745.5" y="-155.5" font-family="Times New Roman,serif" font-size="10.00">UX10 Operator attaches</text>
<text text-anchor="start" x="762" y="-144.5" font-family="Times New Roman,serif" font-size="10.00">overly heavy or</text>
<text text-anchor="start" x="757" y="-133.5" font-family="Times New Roman,serif" font-size="10.00">insecured payload</text>
<text text-anchor="start" x="778.5" y="-122.5" font-family="Times New Roman,serif" font-size="10.00">to UAV</text>
</g>
<!-- HX8&#45;&gt;UX3 -->
<g id="edge17" class="edge"><title>HX8&#45;&gt;UX3</title>
<path fill="none" stroke="black" d="M597.776,-235.231C607.936,-227.917 620.436,-220.276 633,-216 677.306,-200.922 695.816,-228.271 738,-208 753.412,-200.594 766.679,-186.948 776.427,-174.539"/>
<polygon fill="black" stroke="black" points="596.554,-233.958 593.571,-238.335 598.633,-236.773 596.554,-233.958"/>
</g>
<!-- UX13 -->
<g id="node13" class="node"><title>UX13</title>
<polygon fill="#ccebc5" stroke="black" points="112.5,-6 112.5,-72 217.5,-72 217.5,-6 112.5,-6"/>
<text text-anchor="start" x="149" y="-65" font-family="Times New Roman,serif" font-weight="bold" font-size="10.00">Hazard </text>
<polyline fill="none" stroke="black" points="112.5,-61 217.5,-61 "/>
<text text-anchor="start" x="121.5" y="-53" font-family="Times New Roman,serif" font-size="10.00">UX4: User is unaware</text>
<text text-anchor="start" x="133" y="-42" font-family="Times New Roman,serif" font-size="10.00">that failsafe and</text>
<text text-anchor="start" x="127" y="-31" font-family="Times New Roman,serif" font-size="10.00">other flight actions</text>
<text text-anchor="start" x="113.5" y="-20" font-family="Times New Roman,serif" font-size="10.00">are configured incorrectly</text>
<text text-anchor="start" x="128" y="-9" font-family="Times New Roman,serif" font-size="10.00">(e.g., RTL actions)</text>
</g>
<!-- UX14&#45;&gt;UX13 -->
<g id="edge16" class="edge"><title>UX14&#45;&gt;UX13</title>
<path fill="none" stroke="black" d="M208.033,-114.779C200.285,-101.315 191.231,-85.5809 183.431,-72.0282"/>
<polygon fill="black" stroke="black" points="206.596,-115.791 210.607,-119.252 209.63,-114.045 206.596,-115.791"/>
</g>
<!-- UX12 -->
<g id="node15" class="node"><title>UX12</title>
<polygon fill="#ccebc5" stroke="black" points="231.5,-0.5 231.5,-77.5 342.5,-77.5 342.5,-0.5 231.5,-0.5"/>
<text text-anchor="start" x="271" y="-70.5" font-family="Times New Roman,serif" font-weight="bold" font-size="10.00">Hazard </text>
<polyline fill="none" stroke="black" points="231.5,-66.5 342.5,-66.5 "/>
<text text-anchor="start" x="243.5" y="-58.5" font-family="Times New Roman,serif" font-size="10.00">UX5: User is unaware</text>
<text text-anchor="start" x="250" y="-47.5" font-family="Times New Roman,serif" font-size="10.00">that critical arming</text>
<text text-anchor="start" x="246.5" y="-36.5" font-family="Times New Roman,serif" font-size="10.00"> checks are disabled</text>
<text text-anchor="start" x="262" y="-25.5" font-family="Times New Roman,serif" font-size="10.00">e.g., satellite</text>
<text text-anchor="start" x="232.5" y="-14.5" font-family="Times New Roman,serif" font-size="10.00">connections, accelerometer</text>
<text text-anchor="start" x="271.5" y="-3.5" font-family="Times New Roman,serif" font-size="10.00">health)]</text>
</g>
<!-- UX14&#45;&gt;UX12 -->
<g id="edge15" class="edge"><title>UX14&#45;&gt;UX12</title>
<path fill="none" stroke="black" d="M244.008,-114.707C250.715,-103.053 258.395,-89.7067 265.392,-77.5488"/>
<polygon fill="black" stroke="black" points="242.37,-114.045 241.393,-119.252 245.404,-115.791 242.37,-114.045"/>
</g>
</g>
</svg>
