<?xml version="1.0" encoding="UTF-8" standalone="no"?>
<!DOCTYPE svg PUBLIC "-//W3C//DTD SVG 1.1//EN"
 "http://www.w3.org/Graphics/SVG/1.1/DTD/svg11.dtd">
<!-- Generated by graphviz version 2.38.0 (20140413.2041)
 -->
<!-- Title: g Pages: 1 -->
<svg width="644pt" height="431pt"
 viewBox="0.00 0.00 643.50 431.00" xmlns="http://www.w3.org/2000/svg" xmlns:xlink="http://www.w3.org/1999/xlink">
<g id="graph0" class="graph" transform="scale(1 1) rotate(0) translate(0 431)">
<title>g</title>
<polygon fill="white" stroke="none" points="0,-0 0,-431 643.5,-431 643.5,-0 0,-0"/>
<!-- HX1 -->
<g id="node1" class="node"><title>HX1</title>
<polygon fill="#f5f5f5" stroke="black" points="251.5,-364.5 251.5,-430.5 335.5,-430.5 335.5,-364.5 251.5,-364.5"/>
<text text-anchor="start" x="277.5" y="-423.5" font-family="Times New Roman,serif" font-weight="bold" font-size="10.00">Hazard </text>
<polyline fill="none" stroke="black" points="251.5,-419.5 335.5,-419.5 "/>
<text text-anchor="start" x="252.5" y="-411.5" font-family="Times New Roman,serif" font-size="10.00">G1:Failure to comply</text>
<text text-anchor="start" x="255.5" y="-400.5" font-family="Times New Roman,serif" font-size="10.00">with Governmental</text>
<text text-anchor="start" x="257" y="-389.5" font-family="Times New Roman,serif" font-size="10.00">Regulations in the</text>
<text text-anchor="start" x="265.5" y="-378.5" font-family="Times New Roman,serif" font-size="10.00">jurisdiction of</text>
<text text-anchor="start" x="275" y="-367.5" font-family="Times New Roman,serif" font-size="10.00">the flight</text>
</g>
<!-- HX5 -->
<g id="node3" class="node"><title>HX5</title>
<polygon fill="#f5f5f5" stroke="black" points="150.5,-295 150.5,-350 228.5,-350 228.5,-295 150.5,-295"/>
<text text-anchor="start" x="173.5" y="-343" font-family="Times New Roman,serif" font-weight="bold" font-size="10.00">Hazard </text>
<polyline fill="none" stroke="black" points="150.5,-339 228.5,-339 "/>
<text text-anchor="start" x="157.5" y="-331" font-family="Times New Roman,serif" font-size="10.00">G2: UAV flies in</text>
<text text-anchor="start" x="151.5" y="-320" font-family="Times New Roman,serif" font-size="10.00">controlled airspace</text>
<text text-anchor="start" x="154" y="-309" font-family="Times New Roman,serif" font-size="10.00">without acquiring</text>
<text text-anchor="start" x="163" y="-298" font-family="Times New Roman,serif" font-size="10.00">authorization</text>
</g>
<!-- HX1&#45;&gt;HX5 -->
<g id="edge2" class="edge"><title>HX1&#45;&gt;HX5</title>
<path fill="none" stroke="black" d="M247.346,-364.104C240.643,-359.398 233.808,-354.601 227.296,-350.03"/>
<polygon fill="black" stroke="black" points="246.401,-365.578 251.499,-367.019 248.412,-362.714 246.401,-365.578"/>
</g>
<!-- UX27 -->
<g id="node20" class="node"><title>UX27</title>
<polygon fill="#b3cde3" stroke="black" points="350.5,-289.5 350.5,-355.5 446.5,-355.5 446.5,-289.5 350.5,-289.5"/>
<text text-anchor="start" x="382.5" y="-348.5" font-family="Times New Roman,serif" font-weight="bold" font-size="10.00">Hazard </text>
<polyline fill="none" stroke="black" points="350.5,-344.5 446.5,-344.5 "/>
<text text-anchor="start" x="361.5" y="-336.5" font-family="Times New Roman,serif" font-size="10.00">GX1: The operator</text>
<text text-anchor="start" x="356" y="-325.5" font-family="Times New Roman,serif" font-size="10.00">recklessly disregards</text>
<text text-anchor="start" x="351.5" y="-314.5" font-family="Times New Roman,serif" font-size="10.00">FAA flying regulations</text>
<text text-anchor="start" x="362.5" y="-303.5" font-family="Times New Roman,serif" font-size="10.00">without a Part 107</text>
<text text-anchor="start" x="385" y="-292.5" font-family="Times New Roman,serif" font-size="10.00">waiver</text>
</g>
<!-- HX1&#45;&gt;UX27 -->
<g id="edge6" class="edge"><title>HX1&#45;&gt;UX27</title>
<path fill="none" stroke="black" d="M339.736,-364.355C343.891,-361.466 348.099,-358.54 352.254,-355.652"/>
<polygon fill="black" stroke="black" points="338.709,-362.938 335.603,-367.229 340.707,-365.811 338.709,-362.938"/>
</g>
<!-- HX12 -->
<g id="node2" class="node"><title>HX12</title>
<polygon fill="#f5f5f5" stroke="black" points="311.5,-161.5 311.5,-205.5 383.5,-205.5 383.5,-161.5 311.5,-161.5"/>
<text text-anchor="start" x="331.5" y="-198.5" font-family="Times New Roman,serif" font-weight="bold" font-size="10.00">Hazard </text>
<polyline fill="none" stroke="black" points="311.5,-194.5 383.5,-194.5 "/>
<text text-anchor="start" x="312.5" y="-186.5" font-family="Times New Roman,serif" font-size="10.00">G8: Warnings are</text>
<text text-anchor="start" x="318.5" y="-175.5" font-family="Times New Roman,serif" font-size="10.00">inneffective or</text>
<text text-anchor="start" x="330.5" y="-164.5" font-family="Times New Roman,serif" font-size="10.00">missing.</text>
</g>
<!-- HX9 -->
<g id="node7" class="node"><title>HX9</title>
<polygon fill="#f5f5f5" stroke="black" points="241.5,-81 241.5,-136 325.5,-136 325.5,-81 241.5,-81"/>
<text text-anchor="start" x="267.5" y="-129" font-family="Times New Roman,serif" font-weight="bold" font-size="10.00">Hazard </text>
<polyline fill="none" stroke="black" points="241.5,-125 325.5,-125 "/>
<text text-anchor="start" x="243" y="-117" font-family="Times New Roman,serif" font-size="10.00">G6: The system fails</text>
<text text-anchor="start" x="242.5" y="-106" font-family="Times New Roman,serif" font-size="10.00">to warn the operator</text>
<text text-anchor="start" x="247" y="-95" font-family="Times New Roman,serif" font-size="10.00">when they fly into</text>
<text text-anchor="start" x="245" y="-84" font-family="Times New Roman,serif" font-size="10.00">prohibited airspace</text>
</g>
<!-- HX12&#45;&gt;HX9 -->
<g id="edge13" class="edge"><title>HX12&#45;&gt;HX9</title>
<path fill="none" stroke="black" d="M325.666,-157.595C319.572,-150.644 312.928,-143.067 306.755,-136.026"/>
<polygon fill="black" stroke="black" points="324.376,-158.779 328.989,-161.385 327.008,-156.472 324.376,-158.779"/>
</g>
<!-- HX10 -->
<g id="node9" class="node"><title>HX10</title>
<polygon fill="#f5f5f5" stroke="black" points="339.5,-75.5 339.5,-141.5 423.5,-141.5 423.5,-75.5 339.5,-75.5"/>
<text text-anchor="start" x="365.5" y="-134.5" font-family="Times New Roman,serif" font-weight="bold" font-size="10.00">Hazard </text>
<polyline fill="none" stroke="black" points="339.5,-130.5 423.5,-130.5 "/>
<text text-anchor="start" x="341" y="-122.5" font-family="Times New Roman,serif" font-size="10.00">G7: The system fails</text>
<text text-anchor="start" x="340.5" y="-111.5" font-family="Times New Roman,serif" font-size="10.00">to warn the operator</text>
<text text-anchor="start" x="347" y="-100.5" font-family="Times New Roman,serif" font-size="10.00">when they plan a</text>
<text text-anchor="start" x="350" y="-89.5" font-family="Times New Roman,serif" font-size="10.00">flight route into</text>
<text text-anchor="start" x="343" y="-78.5" font-family="Times New Roman,serif" font-size="10.00">prohibited airspace</text>
</g>
<!-- HX12&#45;&gt;HX10 -->
<g id="edge12" class="edge"><title>HX12&#45;&gt;HX10</title>
<path fill="none" stroke="black" d="M359.537,-156.655C361.79,-151.819 364.169,-146.71 366.498,-141.71"/>
<polygon fill="black" stroke="black" points="357.859,-156.114 357.334,-161.385 361.032,-157.592 357.859,-156.114"/>
</g>
<!-- UX21 -->
<g id="node17" class="node"><title>UX21</title>
<polygon fill="#b3cde3" stroke="black" points="442.5,-92 442.5,-125 534.5,-125 534.5,-92 442.5,-92"/>
<text text-anchor="start" x="472.5" y="-118" font-family="Times New Roman,serif" font-weight="bold" font-size="10.00">Hazard </text>
<polyline fill="none" stroke="black" points="442.5,-114 534.5,-114 "/>
<text text-anchor="start" x="443.5" y="-106" font-family="Times New Roman,serif" font-size="10.00">GX6: Operator ignores</text>
<text text-anchor="start" x="458" y="-95" font-family="Times New Roman,serif" font-size="10.00">flight warnings</text>
</g>
<!-- HX12&#45;&gt;UX21 -->
<g id="edge18" class="edge"><title>HX12&#45;&gt;UX21</title>
<path fill="none" stroke="black" d="M388.202,-163.209C401.741,-156.641 416.845,-149.15 430.5,-142 440.726,-136.646 451.813,-130.515 461.528,-125.032"/>
<polygon fill="black" stroke="black" points="387.414,-161.646 383.675,-165.399 388.938,-164.797 387.414,-161.646"/>
</g>
<!-- HX29 -->
<g id="node4" class="node"><title>HX29</title>
<polygon fill="#f5f5f5" stroke="black" points="0,-225.5 0,-280.5 85,-280.5 85,-225.5 0,-225.5"/>
<text text-anchor="start" x="26.5" y="-273.5" font-family="Times New Roman,serif" font-weight="bold" font-size="10.00">Hazard </text>
<polyline fill="none" stroke="black" points="0,-269.5 85,-269.5 "/>
<text text-anchor="start" x="1" y="-261.5" font-family="Times New Roman,serif" font-size="10.00">G9: The UAV has no</text>
<text text-anchor="start" x="10.5" y="-250.5" font-family="Times New Roman,serif" font-size="10.00">active geofence</text>
<polyline fill="none" stroke="black" points="0,-247.5 85,-247.5 "/>
<text text-anchor="start" x="17" y="-239.5" font-family="Times New Roman,serif" font-size="10.00">See preflight</text>
<text text-anchor="start" x="15" y="-228.5" font-family="Times New Roman,serif" font-size="10.00">configuration</text>
</g>
<!-- HX5&#45;&gt;HX29 -->
<g id="edge14" class="edge"><title>HX5&#45;&gt;HX29</title>
<path fill="none" stroke="black" d="M145.679,-304.609C128.586,-297.704 108.944,-289.378 91.5,-281 89.3987,-279.991 87.2607,-278.933 85.1114,-277.846"/>
<polygon fill="black" stroke="black" points="145.137,-306.277 150.429,-306.517 146.442,-303.029 145.137,-306.277"/>
</g>
<!-- HX6 -->
<g id="node6" class="node"><title>HX6</title>
<polygon fill="#f5f5f5" stroke="black" points="99,-225.5 99,-280.5 180,-280.5 180,-225.5 99,-225.5"/>
<text text-anchor="start" x="123.5" y="-273.5" font-family="Times New Roman,serif" font-weight="bold" font-size="10.00">Hazard </text>
<polyline fill="none" stroke="black" points="99,-269.5 180,-269.5 "/>
<text text-anchor="start" x="107.5" y="-261.5" font-family="Times New Roman,serif" font-size="10.00">G3: System fails</text>
<text text-anchor="start" x="107.5" y="-250.5" font-family="Times New Roman,serif" font-size="10.00">to acquire flight</text>
<text text-anchor="start" x="106" y="-239.5" font-family="Times New Roman,serif" font-size="10.00">authorization via</text>
<text text-anchor="start" x="100" y="-228.5" font-family="Times New Roman,serif" font-size="10.00">the LANNC system</text>
</g>
<!-- HX5&#45;&gt;HX6 -->
<g id="edge3" class="edge"><title>HX5&#45;&gt;HX6</title>
<path fill="none" stroke="black" d="M166.534,-290.496C164.167,-287.301 161.776,-284.072 159.445,-280.926"/>
<polygon fill="black" stroke="black" points="165.356,-291.846 169.739,-294.822 168.169,-289.763 165.356,-291.846"/>
</g>
<!-- HX8 -->
<g id="node8" class="node"><title>HX8</title>
<polygon fill="#f5f5f5" stroke="black" points="194,-225.5 194,-280.5 285,-280.5 285,-225.5 194,-225.5"/>
<text text-anchor="start" x="223.5" y="-273.5" font-family="Times New Roman,serif" font-weight="bold" font-size="10.00">Hazard </text>
<polyline fill="none" stroke="black" points="194,-269.5 285,-269.5 "/>
<text text-anchor="start" x="199" y="-261.5" font-family="Times New Roman,serif" font-size="10.00">G5: The system fails</text>
<text text-anchor="start" x="204.5" y="-250.5" font-family="Times New Roman,serif" font-size="10.00">to prevent flights</text>
<text text-anchor="start" x="195" y="-239.5" font-family="Times New Roman,serif" font-size="10.00">into known prohibited</text>
<text text-anchor="start" x="222.5" y="-228.5" font-family="Times New Roman,serif" font-size="10.00">airspace</text>
</g>
<!-- HX5&#45;&gt;HX8 -->
<g id="edge10" class="edge"><title>HX5&#45;&gt;HX8</title>
<path fill="none" stroke="black" d="M212.466,-290.496C214.833,-287.301 217.224,-284.072 219.555,-280.926"/>
<polygon fill="black" stroke="black" points="210.831,-289.763 209.261,-294.822 213.644,-291.846 210.831,-289.763"/>
</g>
<!-- HX7 -->
<g id="node5" class="node"><title>HX7</title>
<polygon fill="#f5f5f5" stroke="black" points="146,-75.5 146,-141.5 227,-141.5 227,-75.5 146,-75.5"/>
<text text-anchor="start" x="170.5" y="-134.5" font-family="Times New Roman,serif" font-weight="bold" font-size="10.00">Hazard </text>
<polyline fill="none" stroke="black" points="146,-130.5 227,-130.5 "/>
<text text-anchor="start" x="154.5" y="-122.5" font-family="Times New Roman,serif" font-size="10.00">G4: System fails</text>
<text text-anchor="start" x="153.5" y="-111.5" font-family="Times New Roman,serif" font-size="10.00">to download the</text>
<text text-anchor="start" x="151" y="-100.5" font-family="Times New Roman,serif" font-size="10.00">map of prohibited</text>
<text text-anchor="start" x="153" y="-89.5" font-family="Times New Roman,serif" font-size="10.00">flight zones from</text>
<text text-anchor="start" x="147" y="-78.5" font-family="Times New Roman,serif" font-size="10.00">the LANNC system</text>
</g>
<!-- UX20 -->
<g id="node18" class="node"><title>UX20</title>
<polygon fill="#ccebc5" stroke="black" points="235.5,-6 235.5,-61 325.5,-61 325.5,-6 235.5,-6"/>
<text text-anchor="start" x="264.5" y="-54" font-family="Times New Roman,serif" font-weight="bold" font-size="10.00">Hazard </text>
<polyline fill="none" stroke="black" points="235.5,-50 325.5,-50 "/>
<text text-anchor="start" x="247" y="-42" font-family="Times New Roman,serif" font-size="10.00">GX5: Operator is</text>
<text text-anchor="start" x="236.5" y="-31" font-family="Times New Roman,serif" font-size="10.00">unaware of prohibited</text>
<text text-anchor="start" x="243" y="-20" font-family="Times New Roman,serif" font-size="10.00">airspace and plans</text>
<text text-anchor="start" x="243" y="-9" font-family="Times New Roman,serif" font-size="10.00">illegal flight routes</text>
</g>
<!-- HX7&#45;&gt;UX20 -->
<g id="edge15" class="edge"><title>HX7&#45;&gt;UX20</title>
<path fill="none" stroke="black" d="M231.369,-72.6553C236.366,-68.7742 241.396,-64.868 246.231,-61.1129"/>
<polygon fill="black" stroke="black" points="230.059,-71.4567 227.183,-75.9057 232.205,-74.221 230.059,-71.4567"/>
</g>
<!-- UX13 -->
<g id="node12" class="node"><title>UX13</title>
<polygon fill="white" stroke="black" points="2.5,-156 2.5,-211 92.5,-211 92.5,-156 2.5,-156"/>
<text text-anchor="start" x="31.5" y="-204" font-family="Times New Roman,serif" font-weight="bold" font-size="10.00">Hazard </text>
<polyline fill="none" stroke="black" points="2.5,-200 92.5,-200 "/>
<text text-anchor="start" x="5" y="-192" font-family="Times New Roman,serif" font-size="10.00">The system is unable</text>
<text text-anchor="start" x="13" y="-181" font-family="Times New Roman,serif" font-size="10.00">to connect to the</text>
<text text-anchor="start" x="8" y="-170" font-family="Times New Roman,serif" font-size="10.00">LANNC system but</text>
<text text-anchor="start" x="3.5" y="-159" font-family="Times New Roman,serif" font-size="10.00">the RPIC flies anyway</text>
</g>
<!-- HX6&#45;&gt;UX13 -->
<g id="edge5" class="edge"><title>HX6&#45;&gt;UX13</title>
<path fill="none" stroke="black" d="M98.9549,-222.252C93.9427,-218.575 88.8429,-214.833 83.898,-211.205"/>
<polygon fill="black" stroke="black" points="98.0726,-223.775 103.139,-225.322 100.143,-220.953 98.0726,-223.775"/>
</g>
<!-- UX12 -->
<g id="node14" class="node"><title>UX12</title>
<polygon fill="white" stroke="black" points="106.5,-150.5 106.5,-216.5 190.5,-216.5 190.5,-150.5 106.5,-150.5"/>
<text text-anchor="start" x="132.5" y="-209.5" font-family="Times New Roman,serif" font-weight="bold" font-size="10.00">Hazard </text>
<polyline fill="none" stroke="black" points="106.5,-205.5 190.5,-205.5 "/>
<text text-anchor="start" x="107.5" y="-197.5" font-family="Times New Roman,serif" font-size="10.00">The LANNC system</text>
<text text-anchor="start" x="119.5" y="-186.5" font-family="Times New Roman,serif" font-size="10.00">explicitly does</text>
<text text-anchor="start" x="114.5" y="-175.5" font-family="Times New Roman,serif" font-size="10.00">not authorize the</text>
<text text-anchor="start" x="111" y="-164.5" font-family="Times New Roman,serif" font-size="10.00">flight but the RPIC</text>
<text text-anchor="start" x="123" y="-153.5" font-family="Times New Roman,serif" font-size="10.00">flies anyway</text>
</g>
<!-- HX6&#45;&gt;UX12 -->
<g id="edge4" class="edge"><title>HX6&#45;&gt;UX12</title>
<path fill="none" stroke="black" d="M143.729,-220.279C143.884,-219.12 144.039,-217.958 144.194,-216.798"/>
<polygon fill="black" stroke="black" points="141.983,-220.135 143.057,-225.322 145.453,-220.597 141.983,-220.135"/>
</g>
<!-- HX9&#45;&gt;UX20 -->
<g id="edge16" class="edge"><title>HX9&#45;&gt;UX20</title>
<path fill="none" stroke="black" d="M282.189,-75.5997C281.992,-70.8166 281.791,-65.9264 281.6,-61.2648"/>
<polygon fill="black" stroke="black" points="280.446,-75.8081 282.4,-80.732 283.943,-75.6643 280.446,-75.8081"/>
</g>
<!-- HX8&#45;&gt;HX12 -->
<g id="edge11" class="edge"><title>HX8&#45;&gt;HX12</title>
<path fill="none" stroke="black" d="M286.643,-222.536C295.778,-216.826 305.179,-210.951 313.777,-205.577"/>
<polygon fill="black" stroke="black" points="285.497,-221.188 282.184,-225.322 287.352,-224.156 285.497,-221.188"/>
</g>
<!-- HX8&#45;&gt;HX7 -->
<g id="edge1" class="edge"><title>HX8&#45;&gt;HX7</title>
<path fill="none" stroke="black" d="M227.723,-220.336C219.02,-196.936 207.213,-165.191 198.465,-141.671"/>
<polygon fill="black" stroke="black" points="226.148,-221.121 229.531,-225.197 229.428,-219.9 226.148,-221.121"/>
</g>
<!-- HX10&#45;&gt;UX20 -->
<g id="edge17" class="edge"><title>HX10&#45;&gt;UX20</title>
<path fill="none" stroke="black" d="M335.157,-74.0047C329.219,-69.7124 323.203,-65.3644 317.441,-61.2001"/>
<polygon fill="black" stroke="black" points="334.175,-75.4538 339.252,-76.9644 336.225,-72.6171 334.175,-75.4538"/>
</g>
<!-- UX26 -->
<g id="node10" class="node"><title>UX26</title>
<polygon fill="#b3cde3" stroke="black" points="299,-225.5 299,-280.5 396,-280.5 396,-225.5 299,-225.5"/>
<text text-anchor="start" x="331.5" y="-273.5" font-family="Times New Roman,serif" font-weight="bold" font-size="10.00">Hazard </text>
<polyline fill="none" stroke="black" points="299,-269.5 396,-269.5 "/>
<text text-anchor="start" x="301.5" y="-261.5" font-family="Times New Roman,serif" font-size="10.00">GX2: Operator releases</text>
<text text-anchor="start" x="300" y="-250.5" font-family="Times New Roman,serif" font-size="10.00">the UAV from a moving</text>
<text text-anchor="start" x="303.5" y="-239.5" font-family="Times New Roman,serif" font-size="10.00">vehicle in a populated</text>
<text text-anchor="start" x="339" y="-228.5" font-family="Times New Roman,serif" font-size="10.00">area</text>
</g>
<!-- UX25 -->
<g id="node11" class="node"><title>UX25</title>
<polygon fill="#b3cde3" stroke="black" points="410.5,-236.5 410.5,-269.5 488.5,-269.5 488.5,-236.5 410.5,-236.5"/>
<text text-anchor="start" x="433.5" y="-262.5" font-family="Times New Roman,serif" font-weight="bold" font-size="10.00">Hazard </text>
<polyline fill="none" stroke="black" points="410.5,-258.5 488.5,-258.5 "/>
<text text-anchor="start" x="411.5" y="-250.5" font-family="Times New Roman,serif" font-size="10.00">GX3: Operator flies</text>
<text text-anchor="start" x="425.5" y="-239.5" font-family="Times New Roman,serif" font-size="10.00">over people</text>
</g>
<!-- UX24 -->
<g id="node13" class="node"><title>UX24</title>
<polygon fill="#b3cde3" stroke="black" points="551.5,-0.5 551.5,-66.5 643.5,-66.5 643.5,-0.5 551.5,-0.5"/>
<text text-anchor="start" x="581.5" y="-59.5" font-family="Times New Roman,serif" font-weight="bold" font-size="10.00">Hazard </text>
<polyline fill="none" stroke="black" points="551.5,-55.5 643.5,-55.5 "/>
<text text-anchor="start" x="552.5" y="-47.5" font-family="Times New Roman,serif" font-size="10.00">GX9: Operator ignores</text>
<text text-anchor="start" x="559" y="-36.5" font-family="Times New Roman,serif" font-size="10.00">failed authorization</text>
<text text-anchor="start" x="561" y="-25.5" font-family="Times New Roman,serif" font-size="10.00">warnings and flies</text>
<text text-anchor="start" x="567" y="-14.5" font-family="Times New Roman,serif" font-size="10.00">in non daylight</text>
<text text-anchor="start" x="585.5" y="-3.5" font-family="Times New Roman,serif" font-size="10.00">hours</text>
</g>
<!-- UX23 -->
<g id="node15" class="node"><title>UX23</title>
<polygon fill="#b3cde3" stroke="black" points="339.5,-11.5 339.5,-55.5 431.5,-55.5 431.5,-11.5 339.5,-11.5"/>
<text text-anchor="start" x="369.5" y="-48.5" font-family="Times New Roman,serif" font-weight="bold" font-size="10.00">Hazard </text>
<polyline fill="none" stroke="black" points="339.5,-44.5 431.5,-44.5 "/>
<text text-anchor="start" x="340.5" y="-36.5" font-family="Times New Roman,serif" font-size="10.00">GX7: Operator ignores</text>
<text text-anchor="start" x="349" y="-25.5" font-family="Times New Roman,serif" font-size="10.00">warnings and flies</text>
<text text-anchor="start" x="342" y="-14.5" font-family="Times New Roman,serif" font-size="10.00">in prohibited airspace</text>
</g>
<!-- UX22 -->
<g id="node16" class="node"><title>UX22</title>
<polygon fill="#b3cde3" stroke="black" points="445.5,-6 445.5,-61 537.5,-61 537.5,-6 445.5,-6"/>
<text text-anchor="start" x="475.5" y="-54" font-family="Times New Roman,serif" font-weight="bold" font-size="10.00">Hazard </text>
<polyline fill="none" stroke="black" points="445.5,-50 537.5,-50 "/>
<text text-anchor="start" x="446.5" y="-42" font-family="Times New Roman,serif" font-size="10.00">GX8: Operator ignores</text>
<text text-anchor="start" x="453" y="-31" font-family="Times New Roman,serif" font-size="10.00">failed authorization</text>
<text text-anchor="start" x="455" y="-20" font-family="Times New Roman,serif" font-size="10.00">warnings and flies</text>
<text text-anchor="start" x="448.5" y="-9" font-family="Times New Roman,serif" font-size="10.00">without authorization</text>
</g>
<!-- UX21&#45;&gt;UX24 -->
<g id="edge21" class="edge"><title>UX21&#45;&gt;UX24</title>
<path fill="none" stroke="black" d="M516.039,-89.0566C526.734,-81.8938 539.281,-73.491 551.279,-65.4553"/>
<polygon fill="black" stroke="black" points="515.064,-87.6033 511.883,-91.8397 517.011,-90.5114 515.064,-87.6033"/>
</g>
<!-- UX21&#45;&gt;UX23 -->
<g id="edge20" class="edge"><title>UX21&#45;&gt;UX23</title>
<path fill="none" stroke="black" d="M462.091,-88.7831C447.821,-78.669 430.148,-66.1439 415.376,-55.6744"/>
<polygon fill="black" stroke="black" points="461.313,-90.3762 466.404,-91.8397 463.336,-87.5207 461.313,-90.3762"/>
</g>
<!-- UX21&#45;&gt;UX22 -->
<g id="edge19" class="edge"><title>UX21&#45;&gt;UX22</title>
<path fill="none" stroke="black" d="M489.366,-86.4258C489.689,-78.5611 490.061,-69.5255 490.402,-61.2195"/>
<polygon fill="black" stroke="black" points="487.608,-86.5924 489.151,-91.6601 491.105,-86.7362 487.608,-86.5924"/>
</g>
<!-- UX28 -->
<g id="node19" class="node"><title>UX28</title>
<polygon fill="#b3cde3" stroke="black" points="502.5,-231 502.5,-275 596.5,-275 596.5,-231 502.5,-231"/>
<text text-anchor="start" x="533.5" y="-268" font-family="Times New Roman,serif" font-weight="bold" font-size="10.00">Hazard </text>
<polyline fill="none" stroke="black" points="502.5,-264 596.5,-264 "/>
<text text-anchor="start" x="503.5" y="-256" font-family="Times New Roman,serif" font-size="10.00">GX4: A single operator</text>
<text text-anchor="start" x="515" y="-245" font-family="Times New Roman,serif" font-size="10.00">operates multiple</text>
<text text-anchor="start" x="537" y="-234" font-family="Times New Roman,serif" font-size="10.00">UAVs</text>
</g>
<!-- UX27&#45;&gt;UX26 -->
<g id="edge8" class="edge"><title>UX27&#45;&gt;UX26</title>
<path fill="none" stroke="black" d="M371.163,-285.319C370.02,-283.806 368.881,-282.299 367.757,-280.811"/>
<polygon fill="black" stroke="black" points="369.784,-286.397 374.195,-289.332 372.577,-284.287 369.784,-286.397"/>
</g>
<!-- UX27&#45;&gt;UX25 -->
<g id="edge7" class="edge"><title>UX27&#45;&gt;UX25</title>
<path fill="none" stroke="black" d="M425.933,-285.192C430.015,-279.789 434.031,-274.473 437.559,-269.804"/>
<polygon fill="black" stroke="black" points="424.423,-284.287 422.805,-289.332 427.216,-286.397 424.423,-284.287"/>
</g>
<!-- UX27&#45;&gt;UX28 -->
<g id="edge9" class="edge"><title>UX27&#45;&gt;UX28</title>
<path fill="none" stroke="black" d="M451.466,-300.152C465.839,-294.151 481.339,-287.487 495.5,-281 499.598,-279.123 503.842,-277.115 508.069,-275.072"/>
<polygon fill="black" stroke="black" points="450.582,-298.624 446.638,-302.16 451.927,-301.855 450.582,-298.624"/>
</g>
</g>
</svg>
