<?xml version="1.0" encoding="UTF-8" standalone="no"?>
<!DOCTYPE svg PUBLIC "-//W3C//DTD SVG 1.1//EN"
 "http://www.w3.org/Graphics/SVG/1.1/DTD/svg11.dtd">
<!-- Generated by graphviz version 2.38.0 (20140413.2041)
 -->
<!-- Title: g Pages: 1 -->
<svg width="668pt" height="431pt"
 viewBox="0.00 0.00 667.50 431.00" xmlns="http://www.w3.org/2000/svg" xmlns:xlink="http://www.w3.org/1999/xlink">
<g id="graph0" class="graph" transform="scale(1 1) rotate(0) translate(0 431)">
<title>g</title>
<polygon fill="white" stroke="none" points="0,-0 0,-431 667.5,-431 667.5,-0 0,-0"/>
<!-- HX1 -->
<g id="node1" class="node"><title>HX1</title>
<polygon fill="#f5f5f5" stroke="black" points="262.5,-364.5 262.5,-430.5 346.5,-430.5 346.5,-364.5 262.5,-364.5"/>
<text text-anchor="start" x="288.5" y="-423.5" font-family="Times New Roman,serif" font-weight="bold" font-size="10.00">Hazard </text>
<polyline fill="none" stroke="black" points="262.5,-419.5 346.5,-419.5 "/>
<text text-anchor="start" x="263.5" y="-411.5" font-family="Times New Roman,serif" font-size="10.00">G1:Failure to comply</text>
<text text-anchor="start" x="266.5" y="-400.5" font-family="Times New Roman,serif" font-size="10.00">with Governmental</text>
<text text-anchor="start" x="268" y="-389.5" font-family="Times New Roman,serif" font-size="10.00">Regulations in the</text>
<text text-anchor="start" x="276.5" y="-378.5" font-family="Times New Roman,serif" font-size="10.00">jurisdiction of</text>
<text text-anchor="start" x="286" y="-367.5" font-family="Times New Roman,serif" font-size="10.00">the flight</text>
</g>
<!-- HX5 -->
<g id="node3" class="node"><title>HX5</title>
<polygon fill="#f5f5f5" stroke="black" points="161.5,-295 161.5,-350 239.5,-350 239.5,-295 161.5,-295"/>
<text text-anchor="start" x="184.5" y="-343" font-family="Times New Roman,serif" font-weight="bold" font-size="10.00">Hazard </text>
<polyline fill="none" stroke="black" points="161.5,-339 239.5,-339 "/>
<text text-anchor="start" x="168.5" y="-331" font-family="Times New Roman,serif" font-size="10.00">G2: UAV flies in</text>
<text text-anchor="start" x="162.5" y="-320" font-family="Times New Roman,serif" font-size="10.00">controlled airspace</text>
<text text-anchor="start" x="165" y="-309" font-family="Times New Roman,serif" font-size="10.00">without acquiring</text>
<text text-anchor="start" x="174" y="-298" font-family="Times New Roman,serif" font-size="10.00">authorization</text>
</g>
<!-- HX1&#45;&gt;HX5 -->
<g id="edge2" class="edge"><title>HX1&#45;&gt;HX5</title>
<path fill="none" stroke="black" d="M258.346,-364.104C251.643,-359.398 244.808,-354.601 238.296,-350.03"/>
<polygon fill="black" stroke="black" points="257.401,-365.578 262.499,-367.019 259.412,-362.714 257.401,-365.578"/>
</g>
<!-- UX27 -->
<g id="node20" class="node"><title>UX27</title>
<polygon fill="#b3cde3" stroke="black" points="361.5,-289.5 361.5,-355.5 457.5,-355.5 457.5,-289.5 361.5,-289.5"/>
<text text-anchor="start" x="393.5" y="-348.5" font-family="Times New Roman,serif" font-weight="bold" font-size="10.00">Hazard </text>
<polyline fill="none" stroke="black" points="361.5,-344.5 457.5,-344.5 "/>
<text text-anchor="start" x="372.5" y="-336.5" font-family="Times New Roman,serif" font-size="10.00">GX3: The operator</text>
<text text-anchor="start" x="367" y="-325.5" font-family="Times New Roman,serif" font-size="10.00">recklessly disregards</text>
<text text-anchor="start" x="362.5" y="-314.5" font-family="Times New Roman,serif" font-size="10.00">FAA flying regulations</text>
<text text-anchor="start" x="373.5" y="-303.5" font-family="Times New Roman,serif" font-size="10.00">without a Part 107</text>
<text text-anchor="start" x="396" y="-292.5" font-family="Times New Roman,serif" font-size="10.00">waiver</text>
</g>
<!-- HX1&#45;&gt;UX27 -->
<g id="edge6" class="edge"><title>HX1&#45;&gt;UX27</title>
<path fill="none" stroke="black" d="M350.736,-364.355C354.891,-361.466 359.099,-358.54 363.254,-355.652"/>
<polygon fill="black" stroke="black" points="349.709,-362.938 346.603,-367.229 351.707,-365.811 349.709,-362.938"/>
</g>
<!-- HX12 -->
<g id="node2" class="node"><title>HX12</title>
<polygon fill="#f5f5f5" stroke="black" points="328.5,-161.5 328.5,-205.5 400.5,-205.5 400.5,-161.5 328.5,-161.5"/>
<text text-anchor="start" x="348.5" y="-198.5" font-family="Times New Roman,serif" font-weight="bold" font-size="10.00">Hazard </text>
<polyline fill="none" stroke="black" points="328.5,-194.5 400.5,-194.5 "/>
<text text-anchor="start" x="329.5" y="-186.5" font-family="Times New Roman,serif" font-size="10.00">G8: Warnings are</text>
<text text-anchor="start" x="335.5" y="-175.5" font-family="Times New Roman,serif" font-size="10.00">inneffective or</text>
<text text-anchor="start" x="347.5" y="-164.5" font-family="Times New Roman,serif" font-size="10.00">missing.</text>
</g>
<!-- HX9 -->
<g id="node7" class="node"><title>HX9</title>
<polygon fill="#f5f5f5" stroke="black" points="258.5,-81 258.5,-136 342.5,-136 342.5,-81 258.5,-81"/>
<text text-anchor="start" x="284.5" y="-129" font-family="Times New Roman,serif" font-weight="bold" font-size="10.00">Hazard </text>
<polyline fill="none" stroke="black" points="258.5,-125 342.5,-125 "/>
<text text-anchor="start" x="260" y="-117" font-family="Times New Roman,serif" font-size="10.00">G6: The system fails</text>
<text text-anchor="start" x="259.5" y="-106" font-family="Times New Roman,serif" font-size="10.00">to warn the operator</text>
<text text-anchor="start" x="264" y="-95" font-family="Times New Roman,serif" font-size="10.00">when they fly into</text>
<text text-anchor="start" x="262" y="-84" font-family="Times New Roman,serif" font-size="10.00">prohibited airspace</text>
</g>
<!-- HX12&#45;&gt;HX9 -->
<g id="edge13" class="edge"><title>HX12&#45;&gt;HX9</title>
<path fill="none" stroke="black" d="M342.666,-157.595C336.572,-150.644 329.928,-143.067 323.755,-136.026"/>
<polygon fill="black" stroke="black" points="341.376,-158.779 345.989,-161.385 344.008,-156.472 341.376,-158.779"/>
</g>
<!-- HX10 -->
<g id="node9" class="node"><title>HX10</title>
<polygon fill="#f5f5f5" stroke="black" points="356.5,-75.5 356.5,-141.5 440.5,-141.5 440.5,-75.5 356.5,-75.5"/>
<text text-anchor="start" x="382.5" y="-134.5" font-family="Times New Roman,serif" font-weight="bold" font-size="10.00">Hazard </text>
<polyline fill="none" stroke="black" points="356.5,-130.5 440.5,-130.5 "/>
<text text-anchor="start" x="358" y="-122.5" font-family="Times New Roman,serif" font-size="10.00">G7: The system fails</text>
<text text-anchor="start" x="357.5" y="-111.5" font-family="Times New Roman,serif" font-size="10.00">to warn the operator</text>
<text text-anchor="start" x="364" y="-100.5" font-family="Times New Roman,serif" font-size="10.00">when they plan a</text>
<text text-anchor="start" x="367" y="-89.5" font-family="Times New Roman,serif" font-size="10.00">flight route into</text>
<text text-anchor="start" x="360" y="-78.5" font-family="Times New Roman,serif" font-size="10.00">prohibited airspace</text>
</g>
<!-- HX12&#45;&gt;HX10 --> 
<g id="edge12" class="edge"><title>HX12&#45;&gt;HX10</title>
<path fill="none" stroke="black" d="M376.537,-156.655C378.79,-151.819 381.169,-146.71 383.498,-141.71"/>
<polygon fill="black" stroke="black" points="374.859,-156.114 374.334,-161.385 378.032,-157.592 374.859,-156.114"/>
</g>
<!-- UX21 -->
<g id="node17" class="node"><title>UX21</title>
<polygon fill="#b3cde3" stroke="black" points="460.5,-92 460.5,-125 552.5,-125 552.5,-92 460.5,-92"/>
<text text-anchor="start" x="490.5" y="-118" font-family="Times New Roman,serif" font-weight="bold" font-size="10.00">Hazard </text>
<polyline fill="none" stroke="black" points="460.5,-114 552.5,-114 "/>
<text text-anchor="start" x="461.5" y="-106" font-family="Times New Roman,serif" font-size="10.00">GX8: Operator ignores</text>
<text text-anchor="start" x="476" y="-95" font-family="Times New Roman,serif" font-size="10.00">flight warnings</text>
</g>
<!-- HX12&#45;&gt;UX21 -->
<g id="edge18" class="edge"><title>HX12&#45;&gt;UX21</title>
<path fill="none" stroke="black" d="M405.172,-163.151C418.709,-156.579 433.819,-149.1 447.5,-142 457.776,-136.667 468.927,-130.598 478.741,-125.16"/>
<polygon fill="black" stroke="black" points="404.383,-161.588 400.646,-165.343 405.909,-164.738 404.383,-161.588"/>
</g>
<!-- HX29 -->
<g id="node4" class="node"><title>HX29</title>
<polygon fill="#f5f5f5" stroke="black" points="11,-225.5 11,-280.5 96,-280.5 96,-225.5 11,-225.5"/>
<text text-anchor="start" x="37.5" y="-273.5" font-family="Times New Roman,serif" font-weight="bold" font-size="10.00">Hazard </text>
<polyline fill="none" stroke="black" points="11,-269.5 96,-269.5 "/>
<text text-anchor="start" x="12" y="-261.5" font-family="Times New Roman,serif" font-size="10.00">G9: The UAV has no</text>
<text text-anchor="start" x="21.5" y="-250.5" font-family="Times New Roman,serif" font-size="10.00">active geofence</text>
<polyline fill="none" stroke="black" points="11,-247.5 96,-247.5 "/>
<text text-anchor="start" x="28" y="-239.5" font-family="Times New Roman,serif" font-size="10.00">See preflight</text>
<text text-anchor="start" x="26" y="-228.5" font-family="Times New Roman,serif" font-size="10.00">configuration</text>
</g>
<!-- HX5&#45;&gt;HX29 -->
<g id="edge14" class="edge"><title>HX5&#45;&gt;HX29</title>
<path fill="none" stroke="black" d="M156.679,-304.609C139.586,-297.704 119.944,-289.378 102.5,-281 100.399,-279.991 98.2607,-278.933 96.1114,-277.846"/>
<polygon fill="black" stroke="black" points="156.137,-306.277 161.429,-306.517 157.442,-303.029 156.137,-306.277"/>
</g>
<!-- HX6 -->
<g id="node6" class="node"><title>HX6</title>
<polygon fill="#f5f5f5" stroke="black" points="110,-225.5 110,-280.5 191,-280.5 191,-225.5 110,-225.5"/>
<text text-anchor="start" x="134.5" y="-273.5" font-family="Times New Roman,serif" font-weight="bold" font-size="10.00">Hazard </text>
<polyline fill="none" stroke="black" points="110,-269.5 191,-269.5 "/>
<text text-anchor="start" x="118.5" y="-261.5" font-family="Times New Roman,serif" font-size="10.00">G3: System fails</text>
<text text-anchor="start" x="118.5" y="-250.5" font-family="Times New Roman,serif" font-size="10.00">to acquire flight</text>
<text text-anchor="start" x="117" y="-239.5" font-family="Times New Roman,serif" font-size="10.00">authorization via</text>
<text text-anchor="start" x="111" y="-228.5" font-family="Times New Roman,serif" font-size="10.00">the LANNC system</text>
</g>
<!-- HX5&#45;&gt;HX6 -->
<g id="edge3" class="edge"><title>HX5&#45;&gt;HX6</title>
<path fill="none" stroke="black" d="M177.534,-290.496C175.167,-287.301 172.776,-284.072 170.445,-280.926"/>
<polygon fill="black" stroke="black" points="176.356,-291.846 180.739,-294.822 179.169,-289.763 176.356,-291.846"/>
</g>
<!-- HX8 -->
<g id="node8" class="node"><title>HX8</title>
<polygon fill="#f5f5f5" stroke="black" points="205,-225.5 205,-280.5 296,-280.5 296,-225.5 205,-225.5"/>
<text text-anchor="start" x="234.5" y="-273.5" font-family="Times New Roman,serif" font-weight="bold" font-size="10.00">Hazard </text>
<polyline fill="none" stroke="black" points="205,-269.5 296,-269.5 "/>
<text text-anchor="start" x="210" y="-261.5" font-family="Times New Roman,serif" font-size="10.00">G5: The system fails</text>
<text text-anchor="start" x="215.5" y="-250.5" font-family="Times New Roman,serif" font-size="10.00">to prevent flights</text>
<text text-anchor="start" x="206" y="-239.5" font-family="Times New Roman,serif" font-size="10.00">into known prohibited</text>
<text text-anchor="start" x="233.5" y="-228.5" font-family="Times New Roman,serif" font-size="10.00">airspace</text>
</g>
<!-- HX5&#45;&gt;HX8 -->
<g id="edge10" class="edge"><title>HX5&#45;&gt;HX8</title>
<path fill="none" stroke="black" d="M223.466,-290.496C225.833,-287.301 228.224,-284.072 230.555,-280.926"/>
<polygon fill="black" stroke="black" points="221.831,-289.763 220.261,-294.822 224.644,-291.846 221.831,-289.763"/>
</g>
<!-- HX7 -->
<g id="node5" class="node"><title>HX7</title>
<polygon fill="#f5f5f5" stroke="black" points="163,-75.5 163,-141.5 244,-141.5 244,-75.5 163,-75.5"/>
<text text-anchor="start" x="187.5" y="-134.5" font-family="Times New Roman,serif" font-weight="bold" font-size="10.00">Hazard </text>
<polyline fill="none" stroke="black" points="163,-130.5 244,-130.5 "/>
<text text-anchor="start" x="171.5" y="-122.5" font-family="Times New Roman,serif" font-size="10.00">G4: System fails</text>
<text text-anchor="start" x="170.5" y="-111.5" font-family="Times New Roman,serif" font-size="10.00">to download the</text>
<text text-anchor="start" x="168" y="-100.5" font-family="Times New Roman,serif" font-size="10.00">map of prohibited</text>
<text text-anchor="start" x="170" y="-89.5" font-family="Times New Roman,serif" font-size="10.00">flight zones from</text>
<text text-anchor="start" x="164" y="-78.5" font-family="Times New Roman,serif" font-size="10.00">the LANNC system</text>
</g>
<!-- UX20 -->
<g id="node18" class="node"><title>UX20</title>
<polygon fill="#ccebc5" stroke="black" points="251.5,-6 251.5,-61 341.5,-61 341.5,-6 251.5,-6"/>
<text text-anchor="start" x="280.5" y="-54" font-family="Times New Roman,serif" font-weight="bold" font-size="10.00">Hazard </text>
<polyline fill="none" stroke="black" points="251.5,-50 341.5,-50 "/>
<text text-anchor="start" x="263" y="-42" font-family="Times New Roman,serif" font-size="10.00">GX7: Operator is</text>
<text text-anchor="start" x="252.5" y="-31" font-family="Times New Roman,serif" font-size="10.00">unaware of prohibited</text>
<text text-anchor="start" x="259" y="-20" font-family="Times New Roman,serif" font-size="10.00">airspace and plans</text>
<text text-anchor="start" x="259" y="-9" font-family="Times New Roman,serif" font-size="10.00">illegal flight routes</text>
</g>
<!-- HX7&#45;&gt;UX20 -->
<g id="edge15" class="edge"><title>HX7&#45;&gt;UX20</title>
<path fill="none" stroke="black" d="M248.084,-72.5041C252.934,-68.6966 257.813,-64.8674 262.507,-61.1823"/>
<polygon fill="black" stroke="black" points="246.873,-71.2296 244.021,-75.6935 249.034,-73.9828 246.873,-71.2296"/>
</g>
<!-- UX13 -->
<g id="node12" class="node"><title>UX13</title>
<polygon fill="#b3cde3" stroke="black" points="0,-150.5 0,-216.5 91,-216.5 91,-150.5 0,-150.5"/>
<text text-anchor="start" x="29.5" y="-209.5" font-family="Times New Roman,serif" font-weight="bold" font-size="10.00">Hazard </text>
<polyline fill="none" stroke="black" points="0,-205.5 91,-205.5 "/>
<text text-anchor="start" x="6.5" y="-197.5" font-family="Times New Roman,serif" font-size="10.00">GX1: The system is</text>
<text text-anchor="start" x="9" y="-186.5" font-family="Times New Roman,serif" font-size="10.00">unable to connect</text>
<text text-anchor="start" x="1" y="-175.5" font-family="Times New Roman,serif" font-size="10.00">to the LANNC system</text>
<text text-anchor="start" x="10.5" y="-164.5" font-family="Times New Roman,serif" font-size="10.00">but the RPIC flies</text>
<text text-anchor="start" x="29.5" y="-153.5" font-family="Times New Roman,serif" font-size="10.00">anyway</text>
</g>
<!-- HX6&#45;&gt;UX13 -->
<g id="edge5" class="edge"><title>HX6&#45;&gt;UX13</title>
<path fill="none" stroke="black" d="M105.57,-223.117C100.82,-220.063 95.9855,-216.955 91.2264,-213.896"/>
<polygon fill="black" stroke="black" points="104.752,-224.671 109.904,-225.903 106.645,-221.727 104.752,-224.671"/>
</g>
<!-- UX12 -->
<g id="node14" class="node"><title>UX12</title>
<polygon fill="#b3cde3" stroke="black" points="105,-150.5 105,-216.5 210,-216.5 210,-150.5 105,-150.5"/>
<text text-anchor="start" x="141.5" y="-209.5" font-family="Times New Roman,serif" font-weight="bold" font-size="10.00">Hazard </text>
<polyline fill="none" stroke="black" points="105,-205.5 210,-205.5 "/>
<text text-anchor="start" x="106" y="-197.5" font-family="Times New Roman,serif" font-size="10.00">GX2: The LANNC system</text>
<text text-anchor="start" x="128.5" y="-186.5" font-family="Times New Roman,serif" font-size="10.00">explicitly does</text>
<text text-anchor="start" x="123.5" y="-175.5" font-family="Times New Roman,serif" font-size="10.00">not authorize the</text>
<text text-anchor="start" x="120" y="-164.5" font-family="Times New Roman,serif" font-size="10.00">flight but the RPIC</text>
<text text-anchor="start" x="132" y="-153.5" font-family="Times New Roman,serif" font-size="10.00">flies anyway</text>
</g>
<!-- HX6&#45;&gt;UX12 -->
<g id="edge4" class="edge"><title>HX6&#45;&gt;UX12</title>
<path fill="none" stroke="black" d="M153.79,-220.279C153.91,-219.12 154.03,-217.958 154.151,-216.798"/>
<polygon fill="black" stroke="black" points="152.042,-220.168 153.267,-225.322 155.523,-220.529 152.042,-220.168"/>
</g>
<!-- HX9&#45;&gt;UX20 -->
<g id="edge16" class="edge"><title>HX9&#45;&gt;UX20</title>
<path fill="none" stroke="black" d="M298.752,-75.5997C298.49,-70.8166 298.222,-65.9264 297.967,-61.2648"/>
<polygon fill="black" stroke="black" points="297.012,-75.8353 299.033,-80.732 300.507,-75.6437 297.012,-75.8353"/>
</g>
<!-- HX8&#45;&gt;HX12 -->
<g id="edge11" class="edge"><title>HX8&#45;&gt;HX12</title>
<path fill="none" stroke="black" d="M299.999,-222.691C309.724,-216.933 319.745,-211 328.903,-205.577"/>
<polygon fill="black" stroke="black" points="298.967,-221.269 295.556,-225.322 300.75,-224.281 298.967,-221.269"/>
</g>
<!-- HX8&#45;&gt;HX7 -->
<g id="edge1" class="edge"><title>HX8&#45;&gt;HX7</title>
<path fill="none" stroke="black" d="M240.056,-220.336C232.339,-196.936 221.868,-165.191 214.111,-141.671"/>
<polygon fill="black" stroke="black" points="238.432,-220.997 241.66,-225.197 241.755,-219.9 238.432,-220.997"/>
</g>
<!-- HX10&#45;&gt;UX20 -->
<g id="edge17" class="edge"><title>HX10&#45;&gt;UX20</title>
<path fill="none" stroke="black" d="M352.14,-74.3208C345.924,-69.8722 339.616,-65.3574 333.588,-61.0434"/>
<polygon fill="black" stroke="black" points="351.339,-75.8997 356.424,-77.3866 353.376,-73.0535 351.339,-75.8997"/>
</g>
<!-- UX26 -->
<g id="node10" class="node"><title>UX26</title>
<polygon fill="#b3cde3" stroke="black" points="310,-225.5 310,-280.5 407,-280.5 407,-225.5 310,-225.5"/>
<text text-anchor="start" x="342.5" y="-273.5" font-family="Times New Roman,serif" font-weight="bold" font-size="10.00">Hazard </text>
<polyline fill="none" stroke="black" points="310,-269.5 407,-269.5 "/>
<text text-anchor="start" x="312.5" y="-261.5" font-family="Times New Roman,serif" font-size="10.00">GX4: Operator releases</text>
<text text-anchor="start" x="311" y="-250.5" font-family="Times New Roman,serif" font-size="10.00">the UAV from a moving</text>
<text text-anchor="start" x="314.5" y="-239.5" font-family="Times New Roman,serif" font-size="10.00">vehicle in a populated</text>
<text text-anchor="start" x="350" y="-228.5" font-family="Times New Roman,serif" font-size="10.00">area</text>
</g>
<!-- UX25 -->
<g id="node11" class="node"><title>UX25</title>
<polygon fill="#b3cde3" stroke="black" points="421.5,-236.5 421.5,-269.5 499.5,-269.5 499.5,-236.5 421.5,-236.5"/>
<text text-anchor="start" x="444.5" y="-262.5" font-family="Times New Roman,serif" font-weight="bold" font-size="10.00">Hazard </text>
<polyline fill="none" stroke="black" points="421.5,-258.5 499.5,-258.5 "/>
<text text-anchor="start" x="422.5" y="-250.5" font-family="Times New Roman,serif" font-size="10.00">GX5: Operator flies</text>
<text text-anchor="start" x="436.5" y="-239.5" font-family="Times New Roman,serif" font-size="10.00">over people</text>
</g>
<!-- UX24 -->
<g id="node13" class="node"><title>UX24</title>
<polygon fill="#b3cde3" stroke="black" points="571.5,-0.5 571.5,-66.5 667.5,-66.5 667.5,-0.5 571.5,-0.5"/>
<text text-anchor="start" x="603.5" y="-59.5" font-family="Times New Roman,serif" font-weight="bold" font-size="10.00">Hazard </text>
<polyline fill="none" stroke="black" points="571.5,-55.5 667.5,-55.5 "/>
<text text-anchor="start" x="572.5" y="-47.5" font-family="Times New Roman,serif" font-size="10.00">GX11: Operator ignores</text>
<text text-anchor="start" x="581" y="-36.5" font-family="Times New Roman,serif" font-size="10.00">failed authorization</text>
<text text-anchor="start" x="583" y="-25.5" font-family="Times New Roman,serif" font-size="10.00">warnings and flies</text>
<text text-anchor="start" x="589" y="-14.5" font-family="Times New Roman,serif" font-size="10.00">in non daylight</text>
<text text-anchor="start" x="607.5" y="-3.5" font-family="Times New Roman,serif" font-size="10.00">hours</text>
</g>
<!-- UX23 -->
<g id="node15" class="node"><title>UX23</title>
<polygon fill="#b3cde3" stroke="black" points="355.5,-11.5 355.5,-55.5 447.5,-55.5 447.5,-11.5 355.5,-11.5"/>
<text text-anchor="start" x="385.5" y="-48.5" font-family="Times New Roman,serif" font-weight="bold" font-size="10.00">Hazard </text>
<polyline fill="none" stroke="black" points="355.5,-44.5 447.5,-44.5 "/>
<text text-anchor="start" x="356.5" y="-36.5" font-family="Times New Roman,serif" font-size="10.00">GX9: Operator ignores</text>
<text text-anchor="start" x="365" y="-25.5" font-family="Times New Roman,serif" font-size="10.00">warnings and flies</text>
<text text-anchor="start" x="358" y="-14.5" font-family="Times New Roman,serif" font-size="10.00">in prohibited airspace</text>
</g>
<!-- UX22 -->
<g id="node16" class="node"><title>UX22</title>
<polygon fill="#b3cde3" stroke="black" points="461.5,-6 461.5,-61 557.5,-61 557.5,-6 461.5,-6"/>
<text text-anchor="start" x="493.5" y="-54" font-family="Times New Roman,serif" font-weight="bold" font-size="10.00">Hazard </text>
<polyline fill="none" stroke="black" points="461.5,-50 557.5,-50 "/>
<text text-anchor="start" x="462.5" y="-42" font-family="Times New Roman,serif" font-size="10.00">GX10: Operator ignores</text>
<text text-anchor="start" x="471" y="-31" font-family="Times New Roman,serif" font-size="10.00">failed authorization</text>
<text text-anchor="start" x="473" y="-20" font-family="Times New Roman,serif" font-size="10.00">warnings and flies</text>
<text text-anchor="start" x="466.5" y="-9" font-family="Times New Roman,serif" font-size="10.00">without authorization</text>
</g>
<!-- UX21&#45;&gt;UX24 -->
<g id="edge21" class="edge"><title>UX21&#45;&gt;UX24</title>
<path fill="none" stroke="black" d="M535.001,-89.0876C545.963,-82.0062 558.806,-73.7093 571.123,-65.7522"/>
<polygon fill="black" stroke="black" points="533.992,-87.6565 530.741,-91.8397 535.891,-90.5964 533.992,-87.6565"/>
</g>
<!-- UX21&#45;&gt;UX23 -->
<g id="edge20" class="edge"><title>UX21&#45;&gt;UX23</title>
<path fill="none" stroke="black" d="M479.578,-88.7831C465.031,-78.669 447.015,-66.1439 431.956,-55.6744"/>
<polygon fill="black" stroke="black" points="478.871,-90.4223 483.975,-91.8397 480.869,-87.5486 478.871,-90.4223"/>
</g>
<!-- UX21&#45;&gt;UX22 -->
<g id="edge19" class="edge"><title>UX21&#45;&gt;UX22</title>
<path fill="none" stroke="black" d="M507.366,-86.4258C507.689,-78.5611 508.061,-69.5255 508.402,-61.2195"/>
<polygon fill="black" stroke="black" points="505.608,-86.5924 507.151,-91.6601 509.105,-86.7362 505.608,-86.5924"/>
</g>
<!-- UX28 -->
<g id="node19" class="node"><title>UX28</title>
<polygon fill="#b3cde3" stroke="black" points="513.5,-231 513.5,-275 607.5,-275 607.5,-231 513.5,-231"/>
<text text-anchor="start" x="544.5" y="-268" font-family="Times New Roman,serif" font-weight="bold" font-size="10.00">Hazard </text>
<polyline fill="none" stroke="black" points="513.5,-264 607.5,-264 "/>
<text text-anchor="start" x="514.5" y="-256" font-family="Times New Roman,serif" font-size="10.00">GX6: A single operator</text>
<text text-anchor="start" x="526" y="-245" font-family="Times New Roman,serif" font-size="10.00">operates multiple</text>
<text text-anchor="start" x="548" y="-234" font-family="Times New Roman,serif" font-size="10.00">UAVs</text>
</g>
<!-- UX27&#45;&gt;UX26 -->
<g id="edge8" class="edge"><title>UX27&#45;&gt;UX26</title>
<path fill="none" stroke="black" d="M382.163,-285.319C381.02,-283.806 379.881,-282.299 378.757,-280.811"/>
<polygon fill="black" stroke="black" points="380.784,-286.397 385.195,-289.332 383.577,-284.287 380.784,-286.397"/>
</g>
<!-- UX27&#45;&gt;UX25 -->
<g id="edge7" class="edge"><title>UX27&#45;&gt;UX25</title>
<path fill="none" stroke="black" d="M436.933,-285.192C441.015,-279.789 445.031,-274.473 448.559,-269.804"/>
<polygon fill="black" stroke="black" points="435.423,-284.287 433.805,-289.332 438.216,-286.397 435.423,-284.287"/>
</g>
<!-- UX27&#45;&gt;UX28 -->
<g id="edge9" class="edge"><title>UX27&#45;&gt;UX28</title>
<path fill="none" stroke="black" d="M462.466,-300.152C476.839,-294.151 492.339,-287.487 506.5,-281 510.598,-279.123 514.842,-277.115 519.069,-275.072"/>
<polygon fill="black" stroke="black" points="461.582,-298.624 457.638,-302.16 462.927,-301.855 461.582,-298.624"/>
</g>
</g>
</svg>
