<?xml version="1.0" encoding="UTF-8" standalone="no"?>
<!DOCTYPE svg PUBLIC "-//W3C//DTD SVG 1.1//EN"
 "http://www.w3.org/Graphics/SVG/1.1/DTD/svg11.dtd">
<!-- Generated by graphviz version 2.38.0 (20140413.2041)
 -->
<!-- Title: g Pages: 1 -->
<svg width="795pt" height="462pt"
 viewBox="0.00 0.00 794.50 462.00" xmlns="http://www.w3.org/2000/svg" xmlns:xlink="http://www.w3.org/1999/xlink">
<g id="graph0" class="graph" transform="scale(1 1) rotate(0) translate(0 462)">
<title>g</title>
<polygon fill="white" stroke="none" points="0,-0 0,-462 794.5,-462 794.5,-0 0,-0"/>
<!-- HX1 -->
<g id="node1" class="node"><title>HX1</title>
<polygon fill="#f5f5f5" stroke="black" points="411.5,-428.5 411.5,-450.5 471.5,-450.5 471.5,-428.5 411.5,-428.5"/>
<text text-anchor="start" x="425.5" y="-443.5" font-family="Times New Roman,serif" font-weight="bold" font-size="10.00">Hazard </text>
<polyline fill="none" stroke="black" points="411.5,-439.5 471.5,-439.5 "/>
<text text-anchor="start" x="412.5" y="-431.5" font-family="Times New Roman,serif" font-size="10.00">System hazard</text>
</g>
<!-- UX2 -->
<g id="node26" class="node"><title>UX2</title>
<polygon fill="lightyellow" stroke="black" points="389,-375.5 389,-408.5 494,-408.5 494,-375.5 389,-375.5"/>
<text text-anchor="start" x="425.5" y="-401.5" font-family="Times New Roman,serif" font-weight="bold" font-size="10.00">Hazard </text>
<polyline fill="none" stroke="black" points="389,-397.5 494,-397.5 "/>
<text text-anchor="start" x="390" y="-389.5" font-family="Times New Roman,serif" font-size="10.00">A1: User lacks Situational</text>
<text text-anchor="start" x="418.5" y="-378.5" font-family="Times New Roman,serif" font-size="10.00">Awareness</text>
</g>
<!-- HX1&#45;&gt;UX2 -->
<g id="edge22" class="edge"><title>HX1&#45;&gt;UX2</title>
<path fill="none" stroke="black" d="M441.5,-423.22C441.5,-418.576 441.5,-413.466 441.5,-408.79"/>
<polygon fill="black" stroke="black" points="439.75,-423.402 441.5,-428.402 443.25,-423.402 439.75,-423.402"/>
</g>
<!-- HX3 -->
<g id="node2" class="node"><title>HX3</title>
<polygon fill="#f5f5f5" stroke="black" points="118,-189 118,-222 185,-222 185,-189 118,-189"/>
<text text-anchor="start" x="135.5" y="-215" font-family="Times New Roman,serif" font-weight="bold" font-size="10.00">Hazard </text>
<polyline fill="none" stroke="black" points="118,-211 185,-211 "/>
<text text-anchor="start" x="119" y="-203" font-family="Times New Roman,serif" font-size="10.00">A6: Attentional </text>
<text text-anchor="start" x="130.5" y="-192" font-family="Times New Roman,serif" font-size="10.00">Tunneling</text>
</g>
<!-- UX32 -->
<g id="node18" class="node"><title>UX32</title>
<polygon fill="lightyellow" stroke="black" points="102.5,-92 102.5,-147 202.5,-147 202.5,-92 102.5,-92"/>
<text text-anchor="start" x="136.5" y="-140" font-family="Times New Roman,serif" font-weight="bold" font-size="10.00">Hazard </text>
<polyline fill="none" stroke="black" points="102.5,-136 202.5,-136 "/>
<text text-anchor="start" x="106" y="-128" font-family="Times New Roman,serif" font-size="10.00">AX4: Operator focuses</text>
<text text-anchor="start" x="103.5" y="-117" font-family="Times New Roman,serif" font-size="10.00">on one UAV and missed</text>
<text text-anchor="start" x="119.5" y="-106" font-family="Times New Roman,serif" font-size="10.00">vital information</text>
<text text-anchor="start" x="122" y="-95" font-family="Times New Roman,serif" font-size="10.00">on other UAVs</text>
</g>
<!-- HX3&#45;&gt;UX32 -->
<g id="edge14" class="edge"><title>HX3&#45;&gt;UX32</title>
<path fill="none" stroke="black" d="M151.75,-183.52C151.881,-172.503 152.043,-158.885 152.183,-147.13"/>
<polygon fill="black" stroke="black" points="149.998,-183.68 151.688,-188.7 153.498,-183.721 149.998,-183.68"/>
</g>
<!-- UX31 -->
<g id="node19" class="node"><title>UX31</title>
<polygon fill="lightyellow" stroke="black" points="0,-92 0,-147 95,-147 95,-92 0,-92"/>
<text text-anchor="start" x="31.5" y="-140" font-family="Times New Roman,serif" font-weight="bold" font-size="10.00">Hazard </text>
<polyline fill="none" stroke="black" points="0,-136 95,-136 "/>
<text text-anchor="start" x="1" y="-128" font-family="Times New Roman,serif" font-size="10.00">AX3: Operator focuses</text>
<text text-anchor="start" x="9.5" y="-117" font-family="Times New Roman,serif" font-size="10.00">on the mission and</text>
<text text-anchor="start" x="17" y="-106" font-family="Times New Roman,serif" font-size="10.00">fails to manage</text>
<text text-anchor="start" x="23.5" y="-95" font-family="Times New Roman,serif" font-size="10.00">UAV safety</text>
</g>
<!-- HX3&#45;&gt;UX31 -->
<g id="edge13" class="edge"><title>HX3&#45;&gt;UX31</title>
<path fill="none" stroke="black" d="M126.396,-185.753C117.504,-178.999 107.481,-171.253 98.5,-164 91.8908,-158.663 84.9039,-152.832 78.2921,-147.223"/>
<polygon fill="black" stroke="black" points="125.618,-187.359 130.661,-188.983 127.732,-184.569 125.618,-187.359"/>
</g>
<!-- HX5 -->
<g id="node3" class="node"><title>HX5</title>
<polygon fill="#f5f5f5" stroke="black" points="319.5,-103 319.5,-136 387.5,-136 387.5,-103 319.5,-103"/>
<text text-anchor="start" x="337.5" y="-129" font-family="Times New Roman,serif" font-weight="bold" font-size="10.00">Hazard </text>
<polyline fill="none" stroke="black" points="319.5,-125 387.5,-125 "/>
<text text-anchor="start" x="320.5" y="-117" font-family="Times New Roman,serif" font-size="10.00">A8: Information </text>
<text text-anchor="start" x="335" y="-106" font-family="Times New Roman,serif" font-size="10.00">Overload</text>
</g>
<!-- UX82 -->
<g id="node22" class="node"><title>UX82</title>
<polygon fill="lightyellow" stroke="black" points="395.5,-6 395.5,-61 491.5,-61 491.5,-6 395.5,-6"/>
<text text-anchor="start" x="427.5" y="-54" font-family="Times New Roman,serif" font-weight="bold" font-size="10.00">Hazard </text>
<polyline fill="none" stroke="black" points="395.5,-50 491.5,-50 "/>
<text text-anchor="start" x="409.5" y="-42" font-family="Times New Roman,serif" font-size="10.00">AX2: Operator is</text>
<text text-anchor="start" x="396.5" y="-31" font-family="Times New Roman,serif" font-size="10.00">overwhelmed by status</text>
<text text-anchor="start" x="413.5" y="-20" font-family="Times New Roman,serif" font-size="10.00">information for</text>
<text text-anchor="start" x="414" y="-9" font-family="Times New Roman,serif" font-size="10.00">multiple UAVs</text>
</g>
<!-- HX5&#45;&gt;UX82 -->
<g id="edge10" class="edge"><title>HX5&#45;&gt;UX82</title>
<path fill="none" stroke="black" d="M369.336,-98.7863C375.886,-91.066 383.752,-82.3232 391.5,-75 396.49,-70.2838 401.997,-65.5536 407.505,-61.075"/>
<polygon fill="black" stroke="black" points="367.713,-97.9988 365.842,-102.955 370.395,-100.247 367.713,-97.9988"/>
</g>
<!-- UX81 -->
<g id="node24" class="node"><title>UX81</title>
<polygon fill="lightyellow" stroke="black" points="318.5,-6 318.5,-61 388.5,-61 388.5,-6 318.5,-6"/>
<text text-anchor="start" x="337.5" y="-54" font-family="Times New Roman,serif" font-weight="bold" font-size="10.00">Hazard </text>
<polyline fill="none" stroke="black" points="318.5,-50 388.5,-50 "/>
<text text-anchor="start" x="319.5" y="-42" font-family="Times New Roman,serif" font-size="10.00">AX1: Operator is</text>
<text text-anchor="start" x="320" y="-31" font-family="Times New Roman,serif" font-size="10.00">unable to handle</text>
<text text-anchor="start" x="325.5" y="-20" font-family="Times New Roman,serif" font-size="10.00">multiple alerts</text>
<text text-anchor="start" x="323" y="-9" font-family="Times New Roman,serif" font-size="10.00">simultaneously</text>
</g>
<!-- HX5&#45;&gt;UX81 -->
<g id="edge9" class="edge"><title>HX5&#45;&gt;UX81</title>
<path fill="none" stroke="black" d="M353.5,-97.5201C353.5,-86.5026 353.5,-72.8849 353.5,-61.1304"/>
<polygon fill="black" stroke="black" points="351.75,-97.7002 353.5,-102.7 355.25,-97.7003 351.75,-97.7002"/>
</g>
<!-- HX4 -->
<g id="node4" class="node"><title>HX4</title>
<polygon fill="#f5f5f5" stroke="black" points="395,-103 395,-136 458,-136 458,-103 395,-103"/>
<text text-anchor="start" x="410.5" y="-129" font-family="Times New Roman,serif" font-weight="bold" font-size="10.00">Hazard </text>
<polyline fill="none" stroke="black" points="395,-125 458,-125 "/>
<text text-anchor="start" x="396" y="-117" font-family="Times New Roman,serif" font-size="10.00">A7: Misplaced </text>
<text text-anchor="start" x="409.5" y="-106" font-family="Times New Roman,serif" font-size="10.00">Salience</text>
</g>
<!-- HX4&#45;&gt;UX82 -->
<g id="edge8" class="edge"><title>HX4&#45;&gt;UX82</title>
<path fill="none" stroke="black" d="M430.746,-97.5201C432.976,-86.5026 435.732,-72.8849 438.111,-61.1304"/>
<polygon fill="black" stroke="black" points="428.974,-97.4524 429.698,-102.7 432.405,-98.1467 428.974,-97.4524"/>
</g>
<!-- HX4&#45;&gt;UX81 -->
<g id="edge7" class="edge"><title>HX4&#45;&gt;UX81</title>
<path fill="none" stroke="black" d="M410.383,-98.6095C404.239,-91.1383 397.122,-82.6142 390.5,-75 386.625,-70.5445 382.457,-65.8716 378.365,-61.348"/>
<polygon fill="black" stroke="black" points="409.163,-99.8821 413.686,-102.639 411.87,-97.6631 409.163,-99.8821"/>
</g>
<!-- HX7 -->
<g id="node5" class="node"><title>HX7</title>
<polygon fill="#f5f5f5" stroke="black" points="604.5,-103 604.5,-136 680.5,-136 680.5,-103 604.5,-103"/>
<text text-anchor="start" x="626.5" y="-129" font-family="Times New Roman,serif" font-weight="bold" font-size="10.00">Hazard </text>
<polyline fill="none" stroke="black" points="604.5,-125 680.5,-125 "/>
<text text-anchor="start" x="605.5" y="-117" font-family="Times New Roman,serif" font-size="10.00">A10: Errant mental</text>
<text text-anchor="start" x="630" y="-106" font-family="Times New Roman,serif" font-size="10.00">model</text>
</g>
<!-- UX72 -->
<g id="node21" class="node"><title>UX72</title>
<polygon fill="lightyellow" stroke="black" points="499,-0.5 499,-66.5 592,-66.5 592,-0.5 499,-0.5"/>
<text text-anchor="start" x="529.5" y="-59.5" font-family="Times New Roman,serif" font-weight="bold" font-size="10.00">Hazard </text>
<polyline fill="none" stroke="black" points="499,-55.5 592,-55.5 "/>
<text text-anchor="start" x="506.5" y="-47.5" font-family="Times New Roman,serif" font-size="10.00">AX7: Operator fails</text>
<text text-anchor="start" x="512" y="-36.5" font-family="Times New Roman,serif" font-size="10.00">to recognize that</text>
<text text-anchor="start" x="510.5" y="-25.5" font-family="Times New Roman,serif" font-size="10.00">UAV is operating</text>
<text text-anchor="start" x="500" y="-14.5" font-family="Times New Roman,serif" font-size="10.00">autonomously outside</text>
<text text-anchor="start" x="507.5" y="-3.5" font-family="Times New Roman,serif" font-size="10.00">its safety envelope</text>
</g>
<!-- HX7&#45;&gt;UX72 -->
<g id="edge19" class="edge"><title>HX7&#45;&gt;UX72</title>
<path fill="none" stroke="black" d="M620.267,-99.2467C609.096,-89.5732 595.264,-77.5944 582.546,-66.5807"/>
<polygon fill="black" stroke="black" points="619.33,-100.75 624.255,-102.7 621.621,-98.1041 619.33,-100.75"/>
</g>
<!-- UX71 -->
<g id="node23" class="node"><title>UX71</title>
<polygon fill="lightyellow" stroke="black" points="599.5,-11.5 599.5,-55.5 685.5,-55.5 685.5,-11.5 599.5,-11.5"/>
<text text-anchor="start" x="626.5" y="-48.5" font-family="Times New Roman,serif" font-weight="bold" font-size="10.00">Hazard </text>
<polyline fill="none" stroke="black" points="599.5,-44.5 685.5,-44.5 "/>
<text text-anchor="start" x="601.5" y="-36.5" font-family="Times New Roman,serif" font-size="10.00">AX6: Operator lacks</text>
<text text-anchor="start" x="608.5" y="-25.5" font-family="Times New Roman,serif" font-size="10.00">experience flying</text>
<text text-anchor="start" x="600.5" y="-14.5" font-family="Times New Roman,serif" font-size="10.00">in current conditions</text>
</g>
<!-- HX7&#45;&gt;UX71 -->
<g id="edge18" class="edge"><title>HX7&#45;&gt;UX71</title>
<path fill="none" stroke="black" d="M642.5,-97.4565C642.5,-84.6767 642.5,-68.4163 642.5,-55.6222"/>
<polygon fill="black" stroke="black" points="640.75,-97.7002 642.5,-102.7 644.25,-97.7003 640.75,-97.7002"/>
</g>
<!-- HX6 -->
<g id="node6" class="node"><title>HX6</title>
<polygon fill="#f5f5f5" stroke="black" points="693.5,-103 693.5,-136 773.5,-136 773.5,-103 693.5,-103"/>
<text text-anchor="start" x="717.5" y="-129" font-family="Times New Roman,serif" font-weight="bold" font-size="10.00">Hazard </text>
<polyline fill="none" stroke="black" points="693.5,-125 773.5,-125 "/>
<text text-anchor="start" x="694.5" y="-117" font-family="Times New Roman,serif" font-size="10.00">A9: Out of the loop</text>
<text text-anchor="start" x="713.5" y="-106" font-family="Times New Roman,serif" font-size="10.00">syndrome</text>
</g>
<!-- UX61 -->
<g id="node20" class="node"><title>UX61</title>
<polygon fill="lightyellow" stroke="black" points="692.5,-6 692.5,-61 788.5,-61 788.5,-6 692.5,-6"/>
<text text-anchor="start" x="724.5" y="-54" font-family="Times New Roman,serif" font-weight="bold" font-size="10.00">Hazard </text>
<polyline fill="none" stroke="black" points="692.5,-50 788.5,-50 "/>
<text text-anchor="start" x="701.5" y="-42" font-family="Times New Roman,serif" font-size="10.00">AX5: Operator fails</text>
<text text-anchor="start" x="702.5" y="-31" font-family="Times New Roman,serif" font-size="10.00">to supervise sUAS</text>
<text text-anchor="start" x="693.5" y="-20" font-family="Times New Roman,serif" font-size="10.00">flights due to excessive</text>
<text text-anchor="start" x="704.5" y="-9" font-family="Times New Roman,serif" font-size="10.00">trust in autonomy</text>
</g>
<!-- HX6&#45;&gt;UX61 -->
<g id="edge17" class="edge"><title>HX6&#45;&gt;UX61</title>
<path fill="none" stroke="black" d="M735.248,-97.5201C736.166,-86.5026 737.301,-72.8849 738.281,-61.1304"/>
<polygon fill="black" stroke="black" points="733.488,-97.5722 734.817,-102.7 736.976,-97.8629 733.488,-97.5722"/>
</g>
<!-- HX9 -->
<g id="node7" class="node"><title>HX9</title>
<polygon fill="#f5f5f5" stroke="black" points="291.5,-183.5 291.5,-227.5 393.5,-227.5 393.5,-183.5 291.5,-183.5"/>
<text text-anchor="start" x="326.5" y="-220.5" font-family="Times New Roman,serif" font-weight="bold" font-size="10.00">Hazard </text>
<polyline fill="none" stroke="black" points="291.5,-216.5 393.5,-216.5 "/>
<text text-anchor="start" x="292.5" y="-208.5" font-family="Times New Roman,serif" font-size="10.00">A12: Workload, Anxiety,</text>
<text text-anchor="start" x="306" y="-197.5" font-family="Times New Roman,serif" font-size="10.00">Fatigue, and other</text>
<text text-anchor="start" x="302" y="-186.5" font-family="Times New Roman,serif" font-size="10.00">Stressors (WAFOS)</text>
</g>
<!-- UX91 -->
<g id="node25" class="node"><title>UX91</title>
<polygon fill="lightyellow" stroke="black" points="212,-75.5 212,-163.5 311,-163.5 311,-75.5 212,-75.5"/>
<text text-anchor="start" x="245.5" y="-156.5" font-family="Times New Roman,serif" font-weight="bold" font-size="10.00">Hazard </text>
<polyline fill="none" stroke="black" points="212,-152.5 311,-152.5 "/>
<text text-anchor="start" x="213" y="-144.5" font-family="Times New Roman,serif" font-size="10.00">AX8: Operator becomes</text>
<text text-anchor="start" x="219.5" y="-133.5" font-family="Times New Roman,serif" font-size="10.00">overwhelmed by the </text>
<text text-anchor="start" x="235.5" y="-122.5" font-family="Times New Roman,serif" font-size="10.00">multi&#45;tasking</text>
<text text-anchor="start" x="233" y="-111.5" font-family="Times New Roman,serif" font-size="10.00">required to fly</text>
<text text-anchor="start" x="224" y="-100.5" font-family="Times New Roman,serif" font-size="10.00">a sUAS safely and</text>
<text text-anchor="start" x="230.5" y="-89.5" font-family="Times New Roman,serif" font-size="10.00">according to all</text>
<text text-anchor="start" x="237.5" y="-78.5" font-family="Times New Roman,serif" font-size="10.00">regulations.</text>
</g>
<!-- HX9&#45;&gt;UX91 -->
<g id="edge11" class="edge"><title>HX9&#45;&gt;UX91</title>
<path fill="none" stroke="black" d="M318.434,-179.542C313.587,-174.516 308.362,-169.098 303.112,-163.653"/>
<polygon fill="black" stroke="black" points="317.33,-180.919 322.06,-183.303 319.849,-178.489 317.33,-180.919"/>
</g>
<!-- HX8 -->
<g id="node8" class="node"><title>HX8</title>
<polygon fill="#f5f5f5" stroke="black" points="465,-103 465,-136 528,-136 528,-103 465,-103"/>
<text text-anchor="start" x="480.5" y="-129" font-family="Times New Roman,serif" font-weight="bold" font-size="10.00">Hazard </text>
<polyline fill="none" stroke="black" points="465,-125 528,-125 "/>
<text text-anchor="start" x="466" y="-117" font-family="Times New Roman,serif" font-size="10.00">A11: Requisite </text>
<text text-anchor="start" x="470.5" y="-106" font-family="Times New Roman,serif" font-size="10.00"> memory trap</text>
</g>
<!-- HX8&#45;&gt;UX82 -->
<g id="edge6" class="edge"><title>HX8&#45;&gt;UX82</title>
<path fill="none" stroke="black" d="M483.828,-98.4156C476.781,-87.2467 467.921,-73.2055 460.303,-61.1304"/>
<polygon fill="black" stroke="black" points="482.383,-99.4054 486.531,-102.7 485.343,-97.5377 482.383,-99.4054"/>
</g>
<!-- HX8&#45;&gt;UX81 -->
<g id="edge5" class="edge"><title>HX8&#45;&gt;UX81</title>
<path fill="none" stroke="black" d="M485.076,-98.7731C478.942,-90.0182 470.564,-80.4756 460.5,-75 433.77,-60.4566 420.458,-79.0161 392.5,-67 388.937,-65.4687 385.447,-63.5037 382.11,-61.2993"/>
<polygon fill="black" stroke="black" points="483.665,-99.8106 487.905,-102.986 486.571,-97.8597 483.665,-99.8106"/>
</g>
<!-- HX13 -->
<g id="node9" class="node"><title>HX13</title>
<polygon fill="#f5f5f5" stroke="black" points="387,-247.5 387,-291.5 496,-291.5 496,-247.5 387,-247.5"/>
<text text-anchor="start" x="425.5" y="-284.5" font-family="Times New Roman,serif" font-weight="bold" font-size="10.00">Hazard </text>
<polyline fill="none" stroke="black" points="387,-280.5 496,-280.5 "/>
<text text-anchor="start" x="388" y="-272.5" font-family="Times New Roman,serif" font-size="10.00">A5: Situational Awareness</text>
<text text-anchor="start" x="405.5" y="-261.5" font-family="Times New Roman,serif" font-size="10.00">demon in the user</text>
<text text-anchor="start" x="409.5" y="-250.5" font-family="Times New Roman,serif" font-size="10.00">interface design</text>
</g>
<!-- HX13&#45;&gt;HX3 -->
<g id="edge29" class="edge"><title>HX13&#45;&gt;HX3</title>
<path fill="none" stroke="black" d="M381.646,-265.627C317.99,-261.851 221.956,-253.877 188.5,-239 179.75,-235.109 171.575,-228.402 165.145,-222.088"/>
<polygon fill="black" stroke="black" points="381.842,-267.392 386.935,-265.936 382.046,-263.898 381.842,-267.392"/>
</g>
<!-- HX13&#45;&gt;HX9 -->
<g id="edge31" class="edge"><title>HX13&#45;&gt;HX9</title>
<path fill="none" stroke="black" d="M403.353,-244.61C394.386,-238.994 384.894,-233.049 376.141,-227.568"/>
<polygon fill="black" stroke="black" points="402.54,-246.166 407.707,-247.337 404.398,-243.199 402.54,-246.166"/>
</g>
<!-- HX14 -->
<g id="node10" class="node"><title>HX14</title>
<polygon fill="#f5f5f5" stroke="black" points="192.5,-194.5 192.5,-216.5 284.5,-216.5 284.5,-194.5 192.5,-194.5"/>
<text text-anchor="start" x="222.5" y="-209.5" font-family="Times New Roman,serif" font-weight="bold" font-size="10.00">Hazard </text>
<polyline fill="none" stroke="black" points="192.5,-205.5 284.5,-205.5 "/>
<text text-anchor="start" x="193.5" y="-197.5" font-family="Times New Roman,serif" font-size="10.00">A13: Complexity creep</text>
</g>
<!-- HX13&#45;&gt;HX14 -->
<g id="edge32" class="edge"><title>HX13&#45;&gt;HX14</title>
<path fill="none" stroke="black" d="M381.981,-262.453C353.02,-258.162 318.144,-250.958 288.5,-239 274.674,-233.423 260.582,-223.837 250.898,-216.516"/>
<polygon fill="black" stroke="black" points="381.747,-264.187 386.946,-263.169 382.247,-260.723 381.747,-264.187"/>
</g>
<!-- HX17 -->
<g id="node11" class="node"><title>HX17</title>
<polygon fill="#f5f5f5" stroke="black" points="400.5,-183.5 400.5,-227.5 482.5,-227.5 482.5,-183.5 400.5,-183.5"/>
<text text-anchor="start" x="425.5" y="-220.5" font-family="Times New Roman,serif" font-weight="bold" font-size="10.00">Hazard </text>
<polyline fill="none" stroke="black" points="400.5,-216.5 482.5,-216.5 "/>
<text text-anchor="start" x="402" y="-208.5" font-family="Times New Roman,serif" font-size="10.00">A16: UI information</text>
<text text-anchor="start" x="401.5" y="-197.5" font-family="Times New Roman,serif" font-size="10.00">presentation design</text>
<text text-anchor="start" x="430.5" y="-186.5" font-family="Times New Roman,serif" font-size="10.00">flaws</text>
</g>
<!-- HX13&#45;&gt;HX17 -->
<g id="edge4" class="edge"><title>HX13&#45;&gt;HX17</title>
<path fill="none" stroke="black" d="M441.5,-242.036C441.5,-237.236 441.5,-232.289 441.5,-227.666"/>
<polygon fill="black" stroke="black" points="439.75,-242.163 441.5,-247.163 443.25,-242.163 439.75,-242.163"/>
</g>
<!-- HX18 -->
<g id="node12" class="node"><title>HX18</title>
<polygon fill="#f5f5f5" stroke="black" points="598,-189 598,-222 695,-222 695,-189 598,-189"/>
<text text-anchor="start" x="630.5" y="-215" font-family="Times New Roman,serif" font-weight="bold" font-size="10.00">Hazard </text>
<polyline fill="none" stroke="black" points="598,-211 695,-211 "/>
<text text-anchor="start" x="599" y="-203" font-family="Times New Roman,serif" font-size="10.00">A17: Human perception</text>
<text text-anchor="start" x="628" y="-192" font-family="Times New Roman,serif" font-size="10.00">problems</text>
</g>
<!-- HX13&#45;&gt;HX18 -->
<g id="edge15" class="edge"><title>HX13&#45;&gt;HX18</title>
<path fill="none" stroke="black" d="M501.542,-261.905C530.074,-257.508 564.254,-250.373 593.5,-239 604.465,-234.736 615.701,-228.211 624.989,-222.124"/>
<polygon fill="black" stroke="black" points="500.967,-260.222 496.283,-262.695 501.487,-263.683 500.967,-260.222"/>
</g>
<!-- HX15 -->
<g id="node13" class="node"><title>HX15</title>
<polygon fill="#f5f5f5" stroke="black" points="702.5,-172.5 702.5,-238.5 794.5,-238.5 794.5,-172.5 702.5,-172.5"/>
<text text-anchor="start" x="732.5" y="-231.5" font-family="Times New Roman,serif" font-weight="bold" font-size="10.00">Hazard </text>
<polyline fill="none" stroke="black" points="702.5,-227.5 794.5,-227.5 "/>
<text text-anchor="start" x="703.5" y="-219.5" font-family="Times New Roman,serif" font-size="10.00">A14: Transition failure</text>
<text text-anchor="start" x="715.5" y="-208.5" font-family="Times New Roman,serif" font-size="10.00">across graphical</text>
<text text-anchor="start" x="704.5" y="-197.5" font-family="Times New Roman,serif" font-size="10.00">and physical interface</text>
<polyline fill="none" stroke="black" points="702.5,-194.5 794.5,-194.5 "/>
<text text-anchor="start" x="710.5" y="-186.5" font-family="Times New Roman,serif" font-size="10.00">xref: Human&#45;sUAV</text>
<text text-anchor="start" x="713.5" y="-175.5" font-family="Times New Roman,serif" font-size="10.00">Partnerships (H8)</text>
</g>
<!-- HX13&#45;&gt;HX15 -->
<g id="edge33" class="edge"><title>HX13&#45;&gt;HX15</title>
<path fill="none" stroke="black" d="M501.359,-264.811C565.681,-260.285 663.407,-251.624 698.5,-239 699.766,-238.544 701.033,-238.051 702.297,-237.526"/>
<polygon fill="black" stroke="black" points="500.882,-263.09 496.015,-265.183 501.125,-266.581 500.882,-263.09"/>
</g>
<!-- HX16 -->
<g id="node14" class="node"><title>HX16</title>
<polygon fill="#f5f5f5" stroke="black" points="490,-183.5 490,-227.5 591,-227.5 591,-183.5 490,-183.5"/>
<text text-anchor="start" x="524.5" y="-220.5" font-family="Times New Roman,serif" font-weight="bold" font-size="10.00">Hazard </text>
<polyline fill="none" stroke="black" points="490,-216.5 591,-216.5 "/>
<text text-anchor="start" x="505.5" y="-208.5" font-family="Times New Roman,serif" font-size="10.00">A15: User fails to</text>
<text text-anchor="start" x="491" y="-197.5" font-family="Times New Roman,serif" font-size="10.00">understand autonomous</text>
<text text-anchor="start" x="521" y="-186.5" font-family="Times New Roman,serif" font-size="10.00">decisions</text>
</g>
<!-- HX13&#45;&gt;HX16 -->
<g id="edge34" class="edge"><title>HX13&#45;&gt;HX16</title>
<path fill="none" stroke="black" d="M479.647,-244.61C488.614,-238.994 498.106,-233.049 506.859,-227.568"/>
<polygon fill="black" stroke="black" points="478.602,-243.199 475.293,-247.337 480.46,-246.166 478.602,-243.199"/>
</g>
<!-- HX14&#45;&gt;UX91 -->
<g id="edge12" class="edge"><title>HX14&#45;&gt;UX91</title>
<path fill="none" stroke="black" d="M242.732,-189.045C244.712,-181.813 247.179,-172.802 249.667,-163.715"/>
<polygon fill="black" stroke="black" points="240.953,-188.915 241.32,-194.2 244.329,-189.84 240.953,-188.915"/>
</g>
<!-- HX17&#45;&gt;HX5 -->
<g id="edge2" class="edge"><title>HX17&#45;&gt;HX5</title>
<path fill="none" stroke="black" d="M409.911,-180.287C403.641,-175.103 397.229,-169.52 391.5,-164 382.545,-155.373 373.35,-144.897 366.248,-136.388"/>
<polygon fill="black" stroke="black" points="408.811,-181.648 413.79,-183.459 411.027,-178.939 408.811,-181.648"/>
</g>
<!-- HX17&#45;&gt;HX4 -->
<g id="edge1" class="edge"><title>HX17&#45;&gt;HX4</title>
<path fill="none" stroke="black" d="M436.828,-178.338C434.356,-164.493 431.403,-147.959 429.29,-136.121"/>
<polygon fill="black" stroke="black" points="435.113,-178.689 437.715,-183.303 438.559,-178.073 435.113,-178.689"/>
</g>
<!-- HX17&#45;&gt;HX8 -->
<g id="edge3" class="edge"><title>HX17&#45;&gt;HX8</title>
<path fill="none" stroke="black" d="M458.154,-179.064C467.314,-165.075 478.385,-148.167 486.272,-136.121"/>
<polygon fill="black" stroke="black" points="456.654,-178.162 455.379,-183.303 459.582,-180.079 456.654,-178.162"/>
</g>
<!-- HX18&#45;&gt;HX7 -->
<g id="edge30" class="edge"><title>HX18&#45;&gt;HX7</title>
<path fill="none" stroke="black" d="M645.501,-183.525C644.803,-168.859 643.885,-149.583 643.249,-136.229"/>
<polygon fill="black" stroke="black" points="643.762,-183.789 645.748,-188.7 647.258,-183.623 643.762,-183.789"/>
</g>
<!-- HX18&#45;&gt;HX6 -->
<g id="edge16" class="edge"><title>HX18&#45;&gt;HX6</title>
<path fill="none" stroke="black" d="M666.643,-185.051C682.006,-170.219 702.893,-150.052 717.209,-136.229"/>
<polygon fill="black" stroke="black" points="665.246,-183.968 662.864,-188.7 667.677,-186.486 665.246,-183.968"/>
</g>
<!-- HX16&#45;&gt;UX72 -->
<g id="edge20" class="edge"><title>HX16&#45;&gt;UX72</title>
<path fill="none" stroke="black" d="M541.271,-178.302C542.154,-148.279 543.601,-99.0632 544.552,-66.7201"/>
<polygon fill="black" stroke="black" points="539.521,-178.264 541.123,-183.313 543.019,-178.367 539.521,-178.264"/>
</g>
<!-- UX12 -->
<g id="node15" class="node"><title>UX12</title>
<polygon fill="lightyellow" stroke="black" points="298.5,-300.5 298.5,-366.5 392.5,-366.5 392.5,-300.5 298.5,-300.5"/>
<text text-anchor="start" x="329.5" y="-359.5" font-family="Times New Roman,serif" font-weight="bold" font-size="10.00">Hazard </text>
<polyline fill="none" stroke="black" points="298.5,-355.5 392.5,-355.5 "/>
<text text-anchor="start" x="308.5" y="-347.5" font-family="Times New Roman,serif" font-size="10.00">A4: User is unable</text>
<text text-anchor="start" x="299.5" y="-336.5" font-family="Times New Roman,serif" font-size="10.00">to make future projects</text>
<text text-anchor="start" x="314" y="-325.5" font-family="Times New Roman,serif" font-size="10.00">hampering their</text>
<text text-anchor="start" x="313" y="-314.5" font-family="Times New Roman,serif" font-size="10.00">decision making</text>
<text text-anchor="start" x="333" y="-303.5" font-family="Times New Roman,serif" font-size="10.00">ability</text>
</g>
<!-- UX12&#45;&gt;HX13 -->
<g id="edge28" class="edge"><title>UX12&#45;&gt;HX13</title>
<path fill="none" stroke="black" d="M397.037,-299.216C401.067,-296.613 405.064,-294.031 408.913,-291.546"/>
<polygon fill="black" stroke="black" points="395.907,-297.862 392.656,-302.045 397.806,-300.802 395.907,-297.862"/>
</g>
<!-- UX11 -->
<g id="node16" class="node"><title>UX11</title>
<polygon fill="lightyellow" stroke="black" points="399.5,-311.5 399.5,-355.5 483.5,-355.5 483.5,-311.5 399.5,-311.5"/>
<text text-anchor="start" x="425.5" y="-348.5" font-family="Times New Roman,serif" font-weight="bold" font-size="10.00">Hazard </text>
<polyline fill="none" stroke="black" points="399.5,-344.5 483.5,-344.5 "/>
<text text-anchor="start" x="404.5" y="-336.5" font-family="Times New Roman,serif" font-size="10.00">A3: User is unable</text>
<text text-anchor="start" x="400.5" y="-325.5" font-family="Times New Roman,serif" font-size="10.00">to comprehend what</text>
<text text-anchor="start" x="415.5" y="-314.5" font-family="Times New Roman,serif" font-size="10.00">is happening</text>
</g>
<!-- UX11&#45;&gt;HX13 -->
<g id="edge27" class="edge"><title>UX11&#45;&gt;HX13</title>
<path fill="none" stroke="black" d="M441.5,-306.036C441.5,-301.236 441.5,-296.289 441.5,-291.666"/>
<polygon fill="black" stroke="black" points="439.75,-306.163 441.5,-311.163 443.25,-306.163 439.75,-306.163"/>
</g>
<!-- UX10 -->
<g id="node17" class="node"><title>UX10</title>
<polygon fill="lightyellow" stroke="black" points="491,-311.5 491,-355.5 574,-355.5 574,-311.5 491,-311.5"/>
<text text-anchor="start" x="516.5" y="-348.5" font-family="Times New Roman,serif" font-weight="bold" font-size="10.00">Hazard </text>
<polyline fill="none" stroke="black" points="491,-344.5 574,-344.5 "/>
<text text-anchor="start" x="492" y="-336.5" font-family="Times New Roman,serif" font-size="10.00">A2: User is unaware</text>
<text text-anchor="start" x="502" y="-325.5" font-family="Times New Roman,serif" font-size="10.00">of the system&#39;s</text>
<text text-anchor="start" x="520" y="-314.5" font-family="Times New Roman,serif" font-size="10.00">status</text>
</g>
<!-- UX10&#45;&gt;HX13 -->
<g id="edge26" class="edge"><title>UX10&#45;&gt;HX13</title>
<path fill="none" stroke="black" d="M498.805,-308.492C494.675,-305.609 490.501,-302.724 486.5,-300 482.484,-297.266 478.244,-294.426 474.035,-291.636"/>
<polygon fill="black" stroke="black" points="497.812,-309.934 502.912,-311.368 499.82,-307.067 497.812,-309.934"/>
</g>
<!-- UX2&#45;&gt;UX12 -->
<g id="edge25" class="edge"><title>UX2&#45;&gt;UX12</title>
<path fill="none" stroke="black" d="M406.619,-372.742C403.18,-370.839 399.759,-368.904 396.5,-367 395.231,-366.259 393.948,-365.501 392.657,-364.732"/>
<polygon fill="black" stroke="black" points="406.081,-374.442 411.306,-375.312 407.763,-371.373 406.081,-374.442"/>
</g>
<!-- UX2&#45;&gt;UX11 -->
<g id="edge24" class="edge"><title>UX2&#45;&gt;UX11</title>
<path fill="none" stroke="black" d="M441.5,-370C441.5,-365.382 441.5,-360.487 441.5,-355.855"/>
<polygon fill="black" stroke="black" points="439.75,-370.262 441.5,-375.262 443.25,-370.262 439.75,-370.262"/>
</g>
<!-- UX2&#45;&gt;UX10 -->
<g id="edge23" class="edge"><title>UX2&#45;&gt;UX10</title>
<path fill="none" stroke="black" d="M476.808,-372.715C480.116,-370.839 483.391,-368.917 486.5,-367 492.16,-363.51 498.058,-359.581 503.67,-355.693"/>
<polygon fill="black" stroke="black" points="475.801,-371.273 472.291,-375.24 477.509,-374.328 475.801,-371.273"/>
</g>
<!-- CX0 -->
<g id="node27" class="node"><title>CX0</title>
<polygon fill="#f5f5f5" stroke="black" points="310.5,-417.5 310.5,-461.5 404.5,-461.5 404.5,-417.5 310.5,-417.5"/>
<text text-anchor="start" x="340.5" y="-454.5" font-family="Times New Roman,serif" font-weight="bold" font-size="10.00">Context </text>
<polyline fill="none" stroke="black" points="310.5,-450.5 404.5,-450.5 "/>
<text text-anchor="start" x="311.5" y="-442.5" font-family="Times New Roman,serif" font-size="10.00">Context: Cross&#45;Cutting</text>
<text text-anchor="start" x="325" y="-431.5" font-family="Times New Roman,serif" font-size="10.00">User Interaction</text>
<text text-anchor="start" x="343.5" y="-420.5" font-family="Times New Roman,serif" font-size="10.00">design</text>
</g>
<!-- CX0&#45;&gt;HX1 -->
<g id="edge21" class="edge"><title>CX0&#45;&gt;HX1</title>
<path fill="none" stroke="black" d="M404.75,-439.5C405.163,-439.5 405.575,-439.5 405.988,-439.5"/>
<polygon fill="black" stroke="black" points="406.354,-441.25 411.354,-439.5 406.353,-437.75 406.354,-441.25"/>
</g>
</g>
</svg>
